<?xml version="1.0" standalone="no"?>
<!DOCTYPE svg PUBLIC "-//W3C//DTD SVG 20010904//EN"
 "http://www.w3.org/TR/2001/REC-SVG-20010904/DTD/svg10.dtd">
<svg version="1.0" xmlns="http://www.w3.org/2000/svg"
 width="997.000000pt" height="997.000000pt" viewBox="0 0 997.000000 997.000000"
 preserveAspectRatio="xMidYMid meet">
<metadata>
Created by potrace 1.14, written by Peter Selinger 2001-2017
</metadata>
<g transform="translate(0.000000,997.000000) scale(0.100000,-0.100000)"
fill="#000000" stroke="none">
<path d="M4836 9943 c-6 -14 -5 -15 5 -6 7 7 10 15 7 18 -3 3 -9 -2 -12 -12z"/>
<path d="M4888 9935 c2 -14 8 -25 12 -25 10 0 1 38 -10 45 -4 2 -5 -7 -2 -20z"/>
<path d="M4915 9918 c3 -24 1 -38 -3 -32 -4 6 -15 14 -26 17 -11 5 -16 13 -12
23 3 9 2 12 -5 9 -5 -4 -7 -16 -4 -28 6 -20 5 -21 -8 -4 -16 20 -29 23 -22 5
3 -8 -5 -14 -21 -15 -20 -1 -24 1 -13 9 10 6 7 7 -11 2 -14 -4 -28 -12 -32
-18 -5 -7 -8 -6 -8 4 0 13 -1 13 -10 0 -7 -11 -10 -11 -10 -2 0 7 -5 10 -10 7
-6 -4 -8 -10 -5 -15 3 -5 1 -11 -4 -15 -6 -3 -8 3 -6 15 2 11 0 20 -6 20 -9 0
-12 -14 -12 -53 0 -13 -3 -15 -13 -6 -11 9 -14 8 -14 -2 0 -9 -3 -10 -8 -4
-10 15 -38 12 -34 -4 1 -7 -2 -10 -7 -7 -5 4 -8 15 -6 26 2 12 0 18 -6 15 -5
-4 -7 -11 -4 -16 4 -5 1 -9 -5 -9 -6 0 -8 -4 -5 -10 3 -5 1 -10 -4 -10 -6 0
-11 6 -11 13 0 9 -3 8 -9 -2 -7 -10 -9 -11 -13 -1 -3 11 -8 11 -24 1 -13 -9
-14 -11 -2 -7 9 2 19 -1 22 -9 3 -9 -1 -12 -15 -10 -21 4 -26 -10 -6 -18 9 -4
9 -6 -1 -6 -8 -1 -10 -6 -6 -13 4 -7 -3 -4 -16 7 -13 11 -20 14 -15 6 6 -10 2
-12 -14 -6 -22 7 -30 -10 -8 -18 9 -4 9 -6 -1 -6 -10 -1 -10 -6 -2 -23 11 -22
10 -22 -4 -4 -15 18 -21 15 -16 -9 1 -5 -2 -7 -6 -3 -4 4 -14 2 -22 -5 -13 -9
-14 -9 -8 1 4 6 2 12 -3 12 -10 0 -16 -38 -12 -63 1 -5 -3 -6 -9 -2 -5 3 -10
0 -10 -7 0 -10 -2 -10 -9 1 -11 17 -25 -4 -15 -21 6 -10 4 -10 -8 0 -13 10
-18 10 -24 1 -4 -8 -3 -9 5 -5 8 6 11 -2 9 -27 -1 -20 -7 -34 -15 -34 -9 0
-10 4 -3 12 8 9 6 14 -5 19 -11 4 -14 2 -9 -6 5 -7 2 -9 -8 -6 -16 7 -18 -17
-3 -41 5 -10 4 -12 -3 -7 -16 10 -15 -7 1 -23 10 -11 10 -13 0 -7 -7 4 -13 2
-13 -4 0 -6 -4 -9 -8 -6 -5 3 -9 -1 -9 -9 0 -8 4 -12 8 -10 14 9 18 -24 4 -35
-7 -6 -12 -20 -10 -30 4 -23 -20 -47 -30 -30 -4 6 -4 14 -1 17 3 4 6 1 6 -6 0
-7 5 -9 10 -6 6 4 7 12 3 18 -12 19 -12 38 -1 31 7 -5 8 -2 3 6 -6 9 -4 11 6
5 11 -6 11 -5 2 5 -9 10 -15 10 -28 -4 -9 -9 -11 -16 -5 -16 7 0 8 -6 0 -19
-5 -11 -7 -27 -3 -37 5 -13 3 -15 -7 -9 -9 6 -11 4 -6 -4 5 -7 11 -10 14 -7 7
8 32 -14 32 -28 0 -6 -5 -3 -11 7 -10 17 -29 15 -29 -4 0 -6 5 -7 12 -3 7 5 8
3 2 -7 -13 -21 -14 -39 -1 -39 8 0 9 -3 1 -8 -6 -4 -14 -16 -18 -27 -5 -15 0
-12 19 9 14 16 25 24 25 18 0 -6 -4 -14 -10 -17 -5 -3 -10 -11 -10 -16 0 -6 4
-8 9 -5 5 3 12 -1 15 -10 3 -8 11 -12 17 -8 8 4 9 3 5 -4 -5 -9 -14 -7 -32 4
-13 9 -24 15 -25 13 -8 -40 -7 -48 9 -54 16 -6 16 -8 -2 -21 -11 -8 -15 -14
-10 -14 6 0 16 6 23 13 11 10 13 9 8 -4 -3 -9 0 -16 8 -16 11 0 12 5 2 21 -6
12 -10 25 -9 29 1 5 -2 6 -7 3 -5 -4 -12 -2 -16 4 -3 5 1 10 9 10 8 0 18 -5
21 -10 4 -6 12 -7 18 -3 8 4 8 1 -1 -9 -10 -13 -10 -19 3 -32 10 -9 12 -16 5
-16 -6 0 -8 -5 -4 -12 4 -6 3 -8 -3 -5 -6 4 -13 0 -16 -8 -4 -9 -1 -12 7 -9 9
4 12 -6 10 -36 -1 -26 1 -38 8 -34 7 5 8 2 2 -7 -20 -32 -10 -51 14 -27 9 9
12 9 12 0 0 -7 -5 -12 -11 -12 -5 0 -7 -4 -4 -10 4 -6 -1 -7 -12 -3 -17 7 -17
6 0 -11 21 -22 22 -27 1 -19 -12 4 -15 2 -12 -8 3 -8 14 -12 24 -11 15 3 17 1
7 -9 -7 -7 -13 -17 -13 -23 0 -5 6 -1 14 9 9 12 11 26 6 35 -5 9 -5 23 1 31 6
10 9 11 9 1 0 -7 5 -10 11 -6 8 4 8 0 0 -15 -10 -17 -9 -22 5 -28 14 -5 13 -8
-7 -19 -20 -11 -21 -13 -5 -14 11 0 16 -5 13 -14 -3 -7 0 -20 6 -27 10 -10 8
-10 -6 0 -15 12 -17 12 -11 -3 3 -9 10 -16 16 -16 5 0 6 -5 3 -10 -4 -6 -12
-8 -18 -4 -7 3 -5 0 3 -8 15 -13 24 -52 11 -43 -12 7 -9 -29 3 -38 8 -6 7 -10
-2 -14 -10 -4 -10 -8 -1 -19 6 -8 9 -14 5 -14 -4 0 0 -13 9 -29 11 -23 12 -31
2 -34 -8 -4 -8 -6 -1 -6 6 -1 18 7 25 16 12 14 12 15 0 9 -10 -7 -12 -3 -6 15
5 20 4 21 -5 9 -10 -13 -11 -12 -6 3 3 10 2 16 -3 13 -4 -3 -8 4 -7 16 2 32
32 32 33 -1 0 -14 3 -38 6 -53 4 -18 1 -28 -9 -32 -13 -5 -13 -8 0 -28 14 -19
14 -23 -2 -35 -16 -12 -16 -13 1 -7 14 5 16 2 10 -12 -6 -17 -5 -18 12 -4 17
13 18 13 10 0 -5 -8 -10 -19 -11 -25 -1 -5 -5 -18 -9 -27 -4 -10 -3 -18 3 -18
15 0 23 -28 10 -36 -6 -4 -8 -3 -4 4 3 6 2 13 -3 16 -12 8 -7 -45 7 -71 6 -11
8 -24 4 -28 -4 -5 -1 -5 6 -1 7 4 12 2 12 -5 0 -7 3 -9 6 -6 4 4 1 13 -5 21
-9 11 -9 16 0 21 14 10 28 -12 22 -35 -3 -10 0 -21 6 -24 16 -10 1 -36 -17
-29 -10 4 -8 -1 7 -16 12 -12 19 -26 16 -31 -12 -19 -14 -50 -3 -50 7 0 6 -6
-2 -15 -10 -12 -10 -15 1 -15 11 0 11 -2 -1 -10 -13 -9 -13 -10 0 -11 8 -1 19
-1 23 0 5 1 6 -3 2 -9 -3 -6 -11 -7 -17 -4 -6 4 -8 1 -6 -7 3 -8 11 -13 17
-11 7 1 10 -2 6 -8 -3 -6 -10 -8 -15 -5 -15 9 -18 -21 -4 -40 11 -15 17 -16
26 -7 9 9 8 12 -4 12 -9 0 -20 4 -23 10 -4 6 2 7 17 1 13 -4 23 -15 23 -22 1
-8 6 -13 13 -12 7 2 9 -4 5 -13 -5 -15 -7 -15 -15 0 -7 13 -13 14 -30 5 -15
-8 -19 -8 -14 0 4 6 2 11 -4 11 -8 0 -9 -7 -5 -17 4 -10 8 -25 10 -33 1 -8 7
-14 13 -13 6 2 10 -6 9 -17 -1 -11 -7 -20 -14 -20 -7 0 -13 -4 -13 -10 0 -5 8
-7 18 -4 14 5 14 3 -2 -10 -11 -9 -15 -16 -9 -16 5 0 17 8 26 18 13 14 14 21
5 30 -9 9 -8 12 7 12 10 0 15 -3 12 -7 -4 -3 -1 -13 6 -21 9 -13 9 -14 0 -8
-8 4 -13 1 -13 -8 0 -9 6 -16 13 -16 8 0 7 -4 -3 -10 -13 -8 -13 -10 0 -10 10
0 11 -3 3 -11 -8 -8 -9 -19 -2 -37 8 -21 7 -23 -4 -13 -11 9 -17 7 -28 -6 -12
-16 -12 -17 1 -7 11 9 17 9 25 0 13 -14 16 -48 4 -40 -5 3 -9 -2 -9 -10 0 -8
5 -18 10 -21 8 -5 8 -11 0 -20 -8 -9 -8 -15 0 -20 7 -4 7 -12 0 -25 -12 -22
-13 -33 -2 -27 4 3 7 -10 7 -28 0 -18 -4 -31 -8 -28 -5 3 -6 11 -4 17 3 7 1
19 -4 27 -7 11 -9 9 -9 -8 0 -16 -5 -20 -20 -16 -16 4 -20 1 -17 -13 1 -11 7
-25 11 -33 6 -9 5 -12 -2 -7 -6 3 -13 2 -17 -4 -3 -5 -2 -10 3 -10 7 0 9 -72
2 -90 -1 -3 -2 -9 -1 -13 1 -5 -3 -6 -9 -2 -5 3 -10 -1 -10 -9 0 -10 6 -13 18
-10 14 5 14 4 -2 -6 -14 -10 -20 -10 -27 1 -4 7 -6 16 -3 20 2 4 0 10 -4 13
-5 3 -8 -20 -7 -52 1 -31 0 -49 -2 -39 -2 9 -8 17 -13 17 -5 0 -6 -7 -3 -17 5
-12 3 -14 -8 -8 -10 7 -9 2 3 -17 13 -19 15 -29 6 -34 -7 -5 -8 -2 -3 7 6 11
5 12 -5 2 -10 -10 -11 -15 -1 -27 8 -10 9 -16 1 -21 -6 -3 -7 -12 -3 -18 4 -7
-1 -6 -10 2 -13 10 -14 17 -7 26 7 9 7 15 1 19 -5 4 -12 2 -16 -4 -3 -5 -3
-10 1 -10 4 0 -1 -7 -12 -16 -18 -15 -18 -15 0 -10 14 5 17 3 11 -11 -4 -10
-8 -23 -9 -30 -1 -7 -6 -16 -11 -20 -4 -4 -5 -2 -1 4 5 9 2 11 -9 6 -13 -4
-14 -8 -4 -14 10 -6 10 -11 0 -22 -8 -10 -9 -17 -1 -22 21 -13 10 -26 -12 -14
-21 11 -22 11 -9 -5 19 -23 7 -31 -15 -9 -17 17 -17 17 -11 1 4 -11 2 -18 -6
-19 -7 -1 -1 -5 13 -9 14 -4 18 -8 9 -9 -12 -1 -16 -10 -14 -36 1 -24 -3 -35
-12 -35 -8 0 -11 -4 -8 -10 3 -5 0 -19 -8 -31 -8 -11 -18 -16 -21 -11 -3 6 1
12 9 16 21 8 19 25 -2 22 -13 -2 -18 -12 -18 -34 0 -19 -5 -32 -12 -32 -7 0
-13 -5 -13 -11 0 -5 4 -8 8 -5 4 2 8 -6 8 -20 0 -13 -5 -23 -10 -21 -6 2 -11
9 -11 15 0 7 -3 12 -7 12 -5 0 -13 0 -20 0 -6 0 -3 -7 8 -16 19 -15 19 -15 -2
-11 -19 4 -21 1 -17 -31 4 -29 2 -34 -10 -29 -11 4 -14 1 -10 -8 3 -8 10 -12
16 -8 6 3 7 1 3 -5 -7 -12 -36 -5 -36 9 0 5 -8 1 -18 -8 -11 -11 -14 -21 -8
-25 14 -9 28 1 20 15 -4 7 -3 8 1 4 11 -9 16 -39 6 -33 -4 3 -13 0 -21 -5 -13
-8 -13 -10 0 -20 13 -9 12 -10 -2 -5 -20 6 -25 -10 -5 -17 6 -3 2 -6 -11 -6
-13 -1 -21 -5 -17 -11 3 -5 13 -7 23 -4 14 5 14 4 3 -4 -8 -6 -19 -8 -25 -6
-7 3 -20 -2 -31 -10 -13 -10 -15 -15 -6 -16 11 0 11 -3 1 -15 -7 -9 -19 -14
-27 -11 -8 3 -11 1 -8 -4 3 -6 -2 -10 -12 -11 -11 0 -13 -3 -5 -6 10 -4 9 -9
-5 -20 -17 -14 -17 -14 3 -10 12 2 21 -1 21 -8 0 -7 -8 -10 -19 -7 -10 2 -18
-1 -18 -6 0 -18 -37 -34 -46 -20 -4 6 -3 8 2 5 6 -3 16 -1 24 4 11 7 9 8 -9 6
-17 -3 -25 -11 -26 -25 -1 -12 2 -19 7 -16 4 3 8 1 8 -5 0 -15 -18 -23 -25
-11 -9 15 -27 1 -21 -16 3 -7 1 -16 -5 -20 -6 -3 -8 -13 -5 -21 3 -8 2 -11 -3
-8 -5 3 -12 1 -16 -4 -3 -6 -13 -7 -23 -4 -9 3 -14 3 -10 -1 3 -4 14 -9 25
-10 10 -2 16 -7 15 -12 -2 -5 -9 -8 -14 -6 -6 2 -8 -4 -5 -13 6 -13 4 -13 -17
0 -25 17 -38 11 -29 -13 4 -10 2 -13 -5 -8 -6 3 -14 1 -18 -5 -4 -7 -3 -9 3
-6 19 12 25 -26 7 -42 -12 -12 -15 -12 -9 -2 6 11 4 13 -8 8 -12 -4 -14 -2
-10 11 6 14 5 15 -9 2 -11 -10 -13 -19 -6 -27 6 -8 4 -10 -10 -6 -11 2 -23 0
-26 -6 -4 -6 -1 -9 7 -5 9 3 16 -3 19 -14 6 -20 -6 -23 -30 -8 -8 5 -12 3 -10
-6 2 -7 -2 -12 -9 -11 -6 1 -17 -4 -23 -12 -8 -9 -8 -15 -2 -15 6 0 9 -8 7
-17 -2 -10 -4 -20 -4 -23 -1 -3 -6 2 -11 10 -6 10 -10 11 -10 3 0 -7 -11 -13
-25 -13 -14 0 -25 -5 -25 -11 0 -6 6 -9 13 -6 7 3 13 -3 13 -13 0 -11 -5 -16
-15 -12 -11 4 -13 1 -7 -14 6 -15 2 -14 -21 6 -15 14 -22 17 -14 8 15 -20 7
-38 -17 -38 -15 0 -15 -2 -2 -10 12 -8 12 -10 1 -10 -11 0 -11 -3 -1 -15 11
-13 10 -14 -5 -9 -14 6 -16 4 -10 -6 5 -9 4 -11 -4 -6 -6 4 -9 11 -6 16 3 4
-2 11 -11 14 -12 4 -15 2 -10 -9 3 -8 2 -14 -2 -14 -18 3 -26 -2 -14 -9 15
-10 7 -38 -14 -46 -12 -5 -12 -1 -4 17 11 21 10 21 -4 3 -12 -15 -18 -17 -30
-7 -11 9 -16 9 -22 0 -4 -7 -3 -9 3 -6 6 4 16 0 23 -8 11 -13 10 -14 -6 -8
-17 6 -18 5 -4 -12 12 -15 12 -17 1 -10 -11 6 -13 3 -9 -13 5 -16 2 -20 -14
-17 -11 3 -27 10 -36 17 -13 11 -14 11 -7 -2 14 -22 15 -41 2 -33 -6 4 -8 0
-4 -10 3 -10 2 -17 -4 -17 -6 0 -8 -4 -4 -10 3 -5 -7 -8 -23 -5 -25 3 -29 0
-27 -20 5 -37 -7 -46 -39 -30 -25 14 -27 13 -16 0 7 -8 8 -15 3 -15 -5 0 -9
-9 -10 -20 -1 -13 3 -18 10 -14 7 3 4 -1 -5 -9 -10 -8 -15 -16 -12 -19 3 -3
-8 -4 -25 -3 -19 2 -32 -3 -36 -12 -4 -11 -1 -13 11 -9 14 5 15 4 5 -8 -7 -8
-18 -14 -24 -12 -7 1 -9 1 -4 -1 15 -9 6 -23 -15 -23 -13 0 -30 -5 -38 -11
-12 -8 -9 -9 10 -4 17 4 21 3 12 -3 -8 -5 -13 -12 -13 -16 3 -22 -1 -27 -18
-21 -11 3 -23 0 -27 -6 -5 -8 -3 -10 7 -4 12 7 12 5 1 -6 -11 -12 -14 -12 -23
1 -7 11 -8 7 -3 -12 4 -19 2 -28 -6 -28 -7 0 -10 -8 -7 -19 3 -14 1 -18 -9
-14 -8 3 -11 10 -7 17 3 6 3 8 -2 4 -4 -4 -14 -3 -21 3 -8 7 -14 6 -20 -2 -4
-7 -3 -9 3 -6 6 4 13 0 17 -8 3 -8 1 -17 -5 -20 -5 -4 -6 -11 -3 -17 5 -7 1
-9 -9 -5 -11 4 -14 2 -10 -8 3 -8 10 -12 17 -8 8 4 8 2 -1 -7 -6 -7 -9 -19 -6
-27 4 -10 0 -14 -13 -11 -12 2 -18 -2 -16 -10 1 -8 -2 -11 -8 -7 -8 5 -8 11 1
21 6 7 16 11 23 7 6 -4 4 2 -4 12 -13 17 -13 18 0 11 11 -6 10 -4 -2 9 -20 21
-37 13 -19 -8 9 -11 7 -17 -5 -28 -10 -8 -20 -13 -23 -12 -3 1 -8 -1 -11 -4
-3 -4 0 -3 6 0 7 4 14 0 17 -8 4 -9 1 -12 -7 -9 -9 4 -13 -3 -11 -20 2 -14 -1
-26 -7 -26 -6 0 -8 7 -5 14 4 10 1 13 -8 9 -8 -3 -12 -10 -9 -15 4 -6 -3 -5
-15 1 -11 7 -21 8 -21 2 0 -5 -7 -12 -16 -15 -14 -5 -15 -4 -4 9 7 9 10 18 6
22 -3 3 -6 1 -6 -6 0 -9 -8 -11 -26 -7 -16 4 -23 3 -20 -3 4 -5 1 -13 -5 -17
-8 -5 -9 -3 -4 6 6 10 4 12 -9 7 -12 -5 -19 0 -26 17 -4 13 -15 26 -23 29 -17
6 -42 -7 -34 -20 3 -5 1 -15 -5 -23 -8 -12 -9 -12 -4 3 3 9 0 17 -6 17 -6 0
-8 3 -5 7 11 10 -13 32 -29 26 -16 -6 -19 -29 -4 -38 6 -4 7 1 3 12 -6 16 -5
16 10 4 22 -17 22 -30 0 -26 -10 1 -22 0 -28 -3 -19 -11 -47 -9 -52 5 -4 11
-8 11 -20 2 -8 -7 -13 -8 -12 -3 4 23 -2 33 -18 28 -15 -5 -16 -4 -3 5 13 9
13 12 1 23 -8 7 -11 8 -8 2 4 -7 0 -15 -9 -18 -8 -3 -12 -11 -8 -17 4 -8 3 -9
-4 -5 -6 4 -9 13 -6 20 5 13 -29 16 -42 3 -11 -10 -26 -8 -19 2 6 11 -35 8
-54 -4 -10 -5 -12 -4 -7 3 9 16 -7 15 -22 0 -9 -9 -12 -9 -12 1 0 11 -3 11
-17 0 -9 -8 -14 -9 -10 -3 4 7 0 14 -8 18 -8 3 -14 2 -14 -2 3 -19 -2 -26 -10
-13 -6 10 -13 11 -27 3 -13 -7 -25 -6 -43 7 -14 9 -22 11 -18 4 11 -18 -3 -16
-24 3 -16 15 -17 14 -13 -8 5 -20 4 -21 -6 -5 -12 19 -35 13 -23 -6 3 -7 -3
-4 -15 7 -12 10 -19 22 -17 27 3 4 0 11 -6 15 -7 4 -10 3 -6 -2 13 -22 -19
-39 -75 -39 -31 0 -54 3 -52 7 3 5 1 8 -5 8 -5 0 -12 -4 -16 -10 -6 -10 -35
-2 -35 10 0 5 9 7 19 5 11 -2 26 4 33 13 10 12 10 14 1 8 -8 -4 -13 -1 -13 8
0 16 -24 17 -47 3 -6 -4 -14 -1 -16 5 -4 10 -6 10 -6 1 -1 -7 -6 -13 -12 -13
-5 0 -8 4 -5 9 4 5 -2 8 -11 7 -10 -2 -18 -9 -18 -16 0 -17 -21 -24 -30 -11
-15 25 -24 9 -9 -16 l16 -28 -21 27 c-17 21 -29 26 -52 23 -20 -2 -32 1 -36
10 -5 15 -28 15 -52 1 -10 -6 -12 -5 -7 2 4 7 1 12 -9 12 -10 0 -13 -5 -9 -12
6 -9 3 -9 -9 0 -18 15 -41 7 -31 -10 4 -7 2 -8 -5 -4 -6 4 -8 12 -5 18 5 7 -2
9 -20 6 -15 -3 -26 -1 -26 6 0 6 -5 4 -10 -4 -7 -11 -10 -11 -10 -2 0 8 -5 10
-12 6 -7 -4 -30 -7 -52 -5 -23 1 -42 -3 -47 -11 -6 -9 -9 -7 -9 7 0 17 -2 17
-10 5 -9 -13 -10 -13 -10 0 0 9 -3 11 -8 5 -4 -5 -36 -10 -72 -10 -68 0 -81
-10 -56 -44 8 -11 8 -13 -1 -8 -6 4 -14 3 -18 -2 -4 -7 -15 -7 -32 0 -23 8
-24 8 -13 -6 11 -13 10 -15 -2 -10 -8 3 -21 -2 -29 -12 -13 -16 -12 -17 4 -4
15 12 17 12 11 -3 -3 -9 -10 -16 -15 -16 -5 0 -8 -5 -6 -12 1 -7 -2 -12 -8
-13 -5 0 -17 -4 -25 -10 -13 -8 -13 -7 -1 8 7 9 18 14 25 10 6 -4 5 1 -3 10
-15 19 -26 23 -15 5 5 -7 2 -9 -7 -6 -11 4 -15 -2 -16 -21 -1 -52 -1 -53 -24
-40 -14 7 -19 7 -15 0 4 -6 -2 -16 -13 -23 -14 -8 -17 -16 -10 -24 6 -8 4 -16
-8 -25 -14 -12 -16 -12 -8 0 6 10 4 12 -4 7 -7 -5 -10 -14 -7 -22 3 -8 0 -11
-9 -7 -8 3 -12 10 -8 17 4 8 3 8 -6 0 -11 -10 -19 -39 -26 -92 -1 -12 -6 -26
-10 -30 -4 -4 -6 3 -3 14 3 12 1 28 -4 35 -8 11 -9 10 -4 -3 3 -10 -1 -24 -9
-32 -8 -8 -15 -19 -15 -25 0 -6 -5 -11 -11 -11 -5 0 -7 -5 -4 -10 4 -6 11 -7
17 -4 7 4 8 2 4 -5 -4 -7 -17 -11 -28 -9 -12 2 -23 -3 -25 -9 -3 -7 0 -13 7
-13 6 0 8 4 5 10 -4 6 1 7 11 3 15 -6 15 -7 0 -15 -11 -6 -22 -6 -29 1 -10 8
-13 0 -12 -35 1 -31 -2 -43 -10 -40 -6 2 -12 -2 -12 -10 0 -7 4 -11 8 -9 4 3
9 -1 12 -9 5 -11 0 -13 -24 -6 -17 5 -31 5 -35 -1 -3 -5 -10 -7 -15 -3 -6 3
-5 -3 2 -14 7 -12 17 -18 23 -15 5 4 3 -3 -5 -15 -9 -12 -14 -37 -13 -57 l3
-36 -20 23 c-11 13 -18 17 -17 8 2 -8 -2 -14 -9 -15 -6 0 -15 -4 -20 -9 -4 -5
-3 -6 4 -2 7 4 17 -2 23 -13 8 -16 6 -23 -12 -35 -21 -15 -18 -21 7 -16 5 1 2
-7 -6 -17 -9 -10 -14 -24 -11 -32 3 -8 -1 -12 -9 -9 -8 3 -14 10 -14 16 0 5
-3 13 -7 17 -3 4 -5 1 -4 -7 5 -24 19 -53 30 -60 6 -4 1 -6 -12 -5 -12 0 -21
6 -20 12 2 5 -2 10 -7 10 -5 0 -9 -5 -7 -12 1 -6 -2 -14 -8 -18 -7 -4 -7 -12
0 -26 8 -14 7 -19 -2 -19 -9 0 -9 -3 2 -10 12 -8 12 -10 1 -10 -11 0 -11 -3 0
-17 10 -12 11 -15 1 -9 -9 6 -11 1 -8 -19 4 -20 1 -25 -9 -21 -11 4 -12 0 -6
-17 6 -15 4 -26 -8 -35 -14 -11 -13 -12 9 -7 23 5 23 5 5 -6 -26 -15 -68 -59
-57 -59 4 0 14 6 21 12 10 11 11 10 6 -5 -4 -9 -12 -17 -19 -17 -6 0 -4 -5 4
-10 12 -8 12 -10 -5 -11 -11 0 -14 -3 -7 -6 6 -2 12 -9 12 -14 0 -6 -5 -7 -11
-4 -6 4 -5 -3 3 -15 10 -18 10 -24 1 -27 -7 -3 -13 -9 -13 -14 0 -6 4 -8 8 -5
5 3 9 -1 9 -9 0 -8 -4 -12 -8 -10 -12 8 -18 -22 -6 -34 6 -6 12 -18 13 -27 1
-9 0 -13 -3 -10 -8 7 -33 -13 -33 -26 0 -6 8 -4 17 3 11 10 14 10 9 1 -4 -7
-2 -12 5 -12 7 0 4 -7 -7 -16 -19 -15 -19 -16 1 -10 19 6 19 5 2 -8 -21 -16
-22 -30 -1 -22 8 3 12 2 9 -4 -10 -16 -22 -12 -40 16 -9 15 -12 24 -7 20 6 -3
13 -2 17 4 3 5 0 10 -7 10 -17 0 -47 -20 -31 -20 13 0 12 -68 -2 -90 -4 -6 5
-4 21 6 l29 18 -23 -23 c-19 -19 -21 -25 -10 -39 7 -9 8 -13 2 -9 -15 9 -24
-59 -9 -74 7 -9 5 -10 -10 -5 -18 5 -18 5 -4 -7 12 -9 14 -18 7 -37 -5 -14 -5
-26 -1 -27 12 -4 4 -92 -11 -126 -8 -17 -9 -17 -22 0 -13 16 -13 15 -3 -9 7
-16 16 -28 21 -28 5 0 7 4 4 8 -2 4 -1 14 3 21 6 9 9 4 9 -13 -1 -31 -14 -42
-31 -27 -9 7 -17 7 -27 -1 -12 -8 -12 -9 2 -4 10 3 20 1 24 -5 3 -5 15 -7 27
-4 12 2 16 2 9 -1 -10 -5 -10 -9 -1 -20 6 -8 7 -14 3 -14 -5 0 -10 -13 -10
-30 -1 -16 2 -27 7 -24 5 3 6 -2 2 -11 -4 -12 -8 -13 -13 -5 -5 8 -9 7 -14 -5
-8 -23 -8 -25 5 -23 6 2 13 -8 15 -22 3 -19 2 -22 -6 -10 -5 8 -10 13 -11 10
0 -3 -2 -13 -4 -22 -2 -10 5 -20 17 -24 11 -3 17 -8 15 -10 -7 -7 -57 18 -57
28 0 5 4 7 9 3 6 -3 8 4 6 15 -3 13 0 18 7 14 7 -5 8 -2 4 5 -5 7 -11 10 -14
7 -3 -3 -12 0 -21 7 -14 10 -14 10 -3 -5 10 -13 10 -17 0 -21 -11 -4 -11 -6 0
-6 10 -1 10 -6 2 -21 -10 -18 -7 -24 11 -22 4 1 15 -8 25 -20 13 -14 15 -22 7
-25 -7 -2 -10 -12 -7 -21 5 -15 4 -15 -6 1 -6 9 -16 14 -22 11 -7 -5 -8 -2 -3
7 6 11 5 11 -5 2 -14 -13 -4 -36 13 -27 7 3 3 -2 -8 -11 -20 -17 -20 -17 5
-11 l25 7 -25 -15 c-14 -9 -19 -15 -12 -16 7 0 10 -4 7 -10 -12 -19 -14 -50
-3 -56 6 -4 5 -10 -3 -15 -10 -6 -11 -9 -1 -9 6 0 12 -5 12 -11 0 -5 -6 -7
-12 -3 -10 6 -10 4 -1 -7 15 -15 17 -33 4 -25 -4 3 -8 -10 -7 -29 1 -29 4 -34
21 -30 11 3 15 2 8 -1 -7 -3 -11 -11 -9 -17 1 -7 1 -9 -1 -4 -11 19 -19 3 -19
-42 0 -40 3 -48 15 -44 11 4 9 0 -4 -11 -20 -17 -20 -17 1 -13 12 2 21 -1 21
-8 0 -7 -7 -12 -16 -11 -13 1 -16 -11 -16 -61 -1 -34 3 -59 7 -57 13 8 9 -11
-4 -25 -8 -9 -8 -11 -2 -8 7 4 15 0 18 -9 3 -8 2 -12 -3 -9 -5 3 -13 0 -17 -6
-4 -8 -3 -9 4 -5 7 4 12 2 12 -4 0 -6 4 -9 9 -6 8 5 8 -15 1 -34 -1 -3 -2 -8
-1 -12 0 -4 -5 -6 -12 -4 -6 1 -9 1 -4 -1 4 -3 7 -13 7 -24 0 -22 10 -24 29
-6 9 8 12 8 7 0 -3 -6 0 -14 6 -16 7 -3 -5 -4 -27 -2 -25 3 -35 1 -26 -4 8 -5
12 -18 8 -31 -4 -17 -3 -19 9 -9 7 6 11 15 8 20 -3 5 0 9 6 9 7 0 9 -8 5 -20
-6 -19 8 -29 18 -12 2 4 3 2 1 -4 -1 -6 3 -17 9 -23 7 -7 8 -12 2 -11 -21 5
-32 -1 -32 -15 0 -13 9 -19 27 -17 3 0 6 -8 6 -19 0 -13 -5 -18 -15 -14 -9 3
-12 3 -8 -1 4 -4 2 -13 -5 -21 -8 -10 -8 -12 4 -8 11 4 17 -2 20 -20 4 -21 3
-23 -9 -14 -7 7 -16 9 -20 5 -3 -3 -1 -6 5 -6 7 0 12 -7 12 -15 0 -8 4 -15 8
-15 10 0 8 -62 -3 -79 -6 -11 -4 -13 10 -7 14 5 15 4 7 -7 -6 -7 -9 -22 -8
-32 2 -11 0 -25 -5 -30 -4 -6 -4 -17 1 -25 7 -10 10 -11 10 -2 0 6 5 12 11 12
5 0 7 -4 4 -10 -7 -11 8 -14 19 -3 3 4 -3 12 -15 18 l-21 12 22 6 c12 3 19 3
16 0 -3 -4 2 -15 11 -26 10 -11 12 -17 6 -13 -14 8 -18 -6 -6 -18 8 -8 12 -86
3 -81 -3 2 -6 -5 -6 -15 0 -10 4 -16 9 -13 10 6 5 -37 -7 -55 -9 -15 21 -55
35 -46 14 8 11 24 -3 20 -7 -1 -9 -1 -5 2 4 2 3 10 -4 18 -8 10 -8 14 0 14 6
0 11 -5 11 -11 0 -5 6 -7 12 -3 7 4 10 4 6 -1 -4 -4 -3 -17 3 -28 7 -13 7 -17
1 -13 -6 3 -14 1 -17 -5 -4 -5 -13 -8 -21 -5 -8 3 -11 0 -7 -10 4 -11 9 -12
16 -5 15 15 44 14 44 -3 0 -8 -7 -11 -18 -9 -9 3 -20 -1 -24 -8 -5 -7 -4 -10
3 -6 12 8 42 -2 42 -13 0 -5 -9 -7 -20 -5 -12 2 -18 0 -15 -6 4 -5 10 -7 15
-4 4 3 14 -3 21 -12 8 -10 9 -14 2 -10 -6 4 -14 3 -18 -3 -3 -5 -1 -10 5 -10
6 0 8 -5 5 -10 -3 -5 -2 -10 4 -10 5 0 11 3 14 8 2 4 3 2 1 -4 -1 -6 3 -17 9
-24 9 -10 6 -9 -13 0 -22 12 -23 11 -13 -2 7 -8 10 -18 6 -21 -7 -8 15 -37 28
-37 5 0 9 5 9 11 0 5 -5 7 -12 3 -7 -5 -8 -3 -3 6 6 9 4 11 -6 5 -12 -7 -12
-6 -1 6 11 12 15 11 25 -6 14 -26 18 -47 6 -39 -5 3 -9 0 -9 -5 0 -6 5 -11 12
-11 6 0 8 -3 5 -6 -3 -4 -2 -15 4 -25 7 -13 6 -19 -1 -19 -6 0 -8 -5 -5 -10 4
-6 12 -8 18 -4 7 3 3 -2 -7 -10 -15 -12 -16 -16 -5 -16 8 0 21 6 28 12 7 7 12
9 11 3 -2 -5 -2 -17 -1 -25 1 -13 2 -13 11 0 5 8 10 10 10 4 0 -5 -5 -15 -12
-22 -9 -9 -9 -12 0 -12 7 0 12 -6 12 -14 0 -8 6 -17 13 -19 10 -4 10 -6 0 -6
-15 -1 -17 -57 -3 -66 15 -9 12 -27 -2 -19 -7 4 -10 3 -5 -1 11 -12 47 -14 40
-2 -3 6 -1 7 4 4 6 -4 16 -21 22 -37 5 -17 6 -28 1 -25 -5 3 -12 0 -16 -6 -4
-7 -3 -9 4 -5 6 3 13 2 17 -4 4 -6 11 -8 16 -5 5 4 9 1 9 -6 0 -8 3 -9 14 0
11 9 13 7 11 -12 -3 -27 20 -64 30 -48 3 6 10 11 16 11 5 0 1 -8 -8 -18 -13
-14 -23 -16 -38 -10 -19 9 -19 8 -1 -6 10 -8 15 -20 11 -28 -4 -7 3 -2 16 12
13 14 21 21 17 16 -14 -18 -8 -29 7 -16 13 11 14 10 9 -5 -5 -13 -4 -16 5 -10
10 6 11 3 2 -14 -7 -12 -8 -21 -2 -21 5 0 11 5 13 12 3 7 7 5 11 -6 4 -10 3
-15 -3 -11 -6 3 -10 0 -10 -7 0 -8 9 -14 20 -15 11 -1 18 2 16 6 -3 4 1 8 9 8
11 0 12 -4 4 -14 -11 -12 -5 -17 14 -14 4 0 7 -3 7 -9 0 -5 -8 -10 -17 -11
-11 0 -13 -3 -5 -6 6 -2 9 -10 5 -16 -4 -7 1 -6 10 2 16 12 17 12 11 -5 -6
-16 -5 -17 7 -6 13 12 38 18 25 5 -3 -4 4 -13 16 -21 l23 -13 -22 4 c-19 4
-21 2 -13 -13 6 -11 16 -22 23 -26 8 -5 7 -2 -2 9 -12 15 -12 17 3 11 9 -3 16
-10 16 -15 0 -14 28 -11 33 4 4 8 6 9 6 0 1 -6 -6 -18 -14 -26 -13 -14 -11
-15 20 -13 19 2 35 -1 35 -7 0 -5 -9 -7 -19 -4 -10 2 -25 1 -32 -4 -14 -9 -12
-10 31 -13 14 0 31 -5 38 -9 7 -5 12 -4 12 2 0 6 5 11 11 11 5 0 7 -5 4 -10
-3 -6 1 -13 9 -16 19 -7 21 -31 4 -36 -7 -3 -2 -7 10 -10 15 -4 22 -2 22 9 0
13 2 12 15 -1 8 -8 24 -13 35 -11 24 5 27 -10 4 -19 -8 -3 -12 -2 -9 4 4 6 -1
7 -11 3 -15 -5 -15 -7 2 -16 12 -7 23 -6 35 2 23 14 29 14 29 1 0 -6 -5 -9
-11 -8 -6 2 -14 -3 -16 -10 -3 -8 1 -10 13 -5 10 4 15 2 11 -3 -3 -6 3 -11 14
-11 13 -1 17 2 12 10 -4 7 0 6 10 -2 9 -7 17 -10 17 -7 0 4 9 2 21 -4 20 -11
20 -12 2 -33 -10 -12 -14 -19 -9 -14 5 4 18 -1 29 -10 11 -10 18 -13 15 -8 -4
6 0 19 8 30 15 19 15 19 11 -5 -4 -20 -1 -26 14 -27 10 -1 19 3 19 8 0 6 -5 7
-12 3 -7 -5 -8 -3 -3 5 5 9 11 9 17 3 6 -6 17 -8 26 -5 12 5 14 1 9 -18 -6
-23 -6 -23 9 -4 14 18 60 32 49 15 -3 -4 3 -14 12 -21 15 -12 16 -12 10 3 -4
12 -2 15 9 11 11 -4 12 -9 5 -16 -13 -13 -43 -18 -36 -6 4 5 -2 6 -11 2 -16
-6 -16 -7 1 -19 9 -7 24 -10 33 -7 22 9 76 8 92 -2 8 -5 11 -4 6 3 -3 6 -2 13
4 17 5 3 10 1 10 -6 0 -7 2 -10 5 -7 3 3 1 16 -4 30 -7 19 -6 25 4 25 8 0 12
-4 9 -9 -3 -4 2 -8 11 -8 9 0 14 4 10 9 -3 5 -1 12 4 15 5 4 8 -1 7 -10 -1 -8
-8 -19 -15 -23 -10 -6 -9 -10 3 -14 9 -4 15 -3 14 1 0 4 4 18 10 32 8 20 11
21 11 6 1 -15 4 -16 15 -6 8 6 28 11 43 10 44 -3 51 -1 56 18 4 16 5 16 6 0 0
-10 4 -18 9 -19 4 0 15 -2 24 -4 10 -2 20 1 24 6 3 5 10 7 15 4 5 -4 9 0 9 7
0 9 3 9 10 -2 9 -13 10 -13 10 0 0 13 1 13 10 0 8 -13 10 -13 10 1 0 9 -7 20
-16 23 -10 4 -13 2 -8 -7 4 -6 4 -9 -1 -5 -4 4 -16 3 -26 -3 -14 -7 -19 -7
-17 2 2 6 -3 14 -11 17 -9 3 -11 0 -6 -8 5 -9 4 -11 -4 -6 -17 11 -2 28 20 21
12 -4 19 -2 19 7 0 8 3 9 8 3 6 -9 26 -12 35 -5 12 10 43 5 55 -8 7 -9 10 -11
6 -3 -5 11 -2 13 14 9 12 -4 24 -2 27 3 3 5 19 7 35 5 21 -2 30 1 30 11 0 9 6
13 15 10 8 -4 17 -2 20 3 3 5 12 7 20 3 8 -3 15 -1 15 5 0 6 -6 13 -12 15 -10
4 -10 6 -1 6 18 1 26 -18 13 -34 -7 -9 -8 -15 0 -20 9 -6 14 1 11 18 0 4 3 7
9 7 5 0 10 -4 10 -10 0 -5 5 -10 11 -10 8 0 9 4 0 13 -6 8 -7 18 -3 22 4 5 2
5 -4 2 -7 -4 -14 0 -18 8 -8 21 16 14 32 -10 9 -14 12 -15 8 -3 -6 20 13 29
48 22 16 -3 26 0 26 8 0 8 3 9 10 2 5 -5 28 -8 51 -6 42 4 42 5 20 21 -21 16
-21 17 -2 17 11 0 18 -2 16 -4 -7 -8 25 -33 34 -27 5 3 12 1 16 -5 9 -15 46 7
39 23 -2 7 6 22 18 33 l23 19 -19 -23 c-15 -17 -16 -21 -5 -17 9 3 22 -1 29
-9 7 -9 16 -13 22 -10 5 3 4 12 -3 20 -6 7 -16 11 -23 7 -6 -4 -5 1 3 11 14
17 16 16 32 -5 l17 -22 -3 25 c-3 26 3 28 38 13 9 -4 24 -5 32 -1 8 3 18 -2
23 -11 8 -14 10 -13 15 2 4 9 11 13 17 10 5 -3 10 -1 10 6 0 7 6 5 13 -6 11
-14 16 -15 22 -5 5 9 4 11 -3 6 -7 -4 -12 -2 -12 3 0 6 6 11 14 11 8 0 22 10
30 22 9 12 19 19 23 15 4 -4 -3 -14 -15 -23 -23 -16 -32 -41 -9 -27 6 4 20 6
31 4 11 -1 16 2 11 8 -3 6 -12 8 -18 4 -7 -4 -5 2 3 13 22 29 24 30 17 12 -3
-10 0 -19 9 -22 9 -3 12 -1 9 4 -3 6 -2 10 3 10 16 0 22 -13 11 -27 -9 -9 -8
-13 0 -13 6 0 11 5 11 11 0 5 6 7 13 3 9 -6 9 -5 0 8 -7 8 -9 19 -5 23 4 5 1
5 -5 1 -7 -4 -13 -5 -13 -2 0 2 14 12 32 20 31 16 31 16 13 -4 -23 -26 -11
-26 25 0 27 20 66 18 54 -2 -4 -6 5 -3 19 7 14 9 28 12 31 7 11 -18 98 3 94
22 -2 6 2 11 7 11 6 0 8 -6 7 -15 -2 -8 0 -12 4 -7 4 4 18 0 30 -8 21 -14 24
-13 33 4 11 19 5 31 -13 31 -6 0 -5 -4 2 -9 11 -7 11 -9 -1 -14 -9 -3 -21 2
-29 11 -11 13 -11 14 1 7 11 -6 13 -4 8 8 -6 15 -3 16 26 4 34 -15 57 -12 57
5 0 7 -5 6 -14 -1 -11 -9 -16 -9 -22 1 -4 7 -4 10 1 6 4 -4 13 -4 19 1 13 11
40 -6 49 -29 3 -10 6 -6 6 10 1 20 3 22 11 10 5 -8 10 -10 10 -5 0 12 110 15
110 2 0 -4 -4 -6 -9 -3 -5 4 -8 -2 -7 -11 2 -9 8 -19 14 -21 7 -2 9 -8 6 -14
-4 -5 4 -4 17 3 23 12 23 11 9 -7 -15 -18 -14 -18 11 -2 26 17 39 15 39 -6 0
-6 -5 -4 -11 4 -8 11 -9 9 -3 -10 4 -14 11 -27 15 -28 5 -2 7 -8 3 -13 -3 -6
6 -7 23 -5 37 7 55 -6 55 -38 1 -14 4 -26 9 -26 5 0 9 7 9 15 0 8 4 15 10 15
5 0 7 -7 4 -15 -4 -9 3 -19 20 -26 23 -11 31 -26 27 -51 0 -4 6 -5 14 -2 10 4
15 0 16 -12 0 -15 2 -16 7 -4 6 14 18 17 40 10 4 -1 11 -2 17 0 5 1 2 -7 -7
-17 -17 -18 -8 -57 9 -40 4 5 1 12 -7 18 -12 7 -11 8 5 6 11 -1 31 -10 44 -19
13 -10 29 -15 35 -12 6 3 0 -4 -14 -17 l-25 -22 24 8 c16 5 21 4 17 -4 -5 -7
-2 -10 6 -9 7 2 12 -3 10 -10 -1 -8 2 -11 8 -7 7 4 7 13 -1 27 -8 15 -8 23 1
32 8 8 9 6 4 -8 -5 -13 -4 -17 4 -12 8 5 10 2 6 -8 -3 -9 -1 -16 5 -16 6 0 8
-8 4 -17 -5 -15 -3 -15 9 1 23 30 48 14 45 -27 -2 -25 0 -34 10 -30 9 3 10 10
4 22 -8 13 -5 17 12 18 17 2 19 0 7 -7 -13 -8 -13 -12 3 -27 17 -17 18 -17 11
0 -3 10 -1 17 5 17 11 0 15 -13 11 -39 -1 -10 3 -10 15 3 22 22 40 16 41 -15
2 -40 3 -41 26 -25 27 19 49 21 23 3 -14 -11 -15 -16 -5 -22 9 -6 11 -4 5 5
-5 9 -2 10 14 5 12 -4 21 -2 21 4 0 6 5 11 11 11 5 0 8 -4 5 -9 -8 -12 41 -20
53 -8 6 6 8 3 6 -9 -2 -11 -4 -23 -4 -28 -1 -6 -7 -2 -14 8 -12 16 -13 16 -13
-2 0 -13 7 -19 21 -18 12 1 19 -4 17 -13 -3 -12 0 -12 12 -1 17 14 22 25 7 15
-5 -3 -12 -1 -15 4 -4 5 2 8 11 6 12 -1 17 -10 15 -25 l-2 -22 21 23 c11 13
18 18 14 11 -5 -9 1 -11 19 -8 15 3 24 1 21 -5 -7 -11 24 -7 45 6 13 8 13 7 1
-8 -7 -9 -10 -17 -6 -17 4 0 2 -7 -5 -15 -7 -8 -11 -15 -9 -16 33 -6 38 -6 33
4 -3 7 2 3 12 -8 16 -20 16 -20 11 3 -4 19 -3 21 9 11 7 -6 11 -15 8 -20 -3
-5 2 -6 10 -3 9 3 13 11 10 16 -4 6 5 3 19 -6 20 -13 26 -14 30 -4 4 11 6 11
6 0 1 -8 6 -10 13 -6 7 4 10 4 6 -1 -4 -4 -3 -17 3 -29 10 -21 10 -21 -6 -1
-9 11 -21 19 -27 17 -5 -1 -16 2 -23 8 -9 8 -14 7 -18 -3 -4 -10 3 -13 24 -12
16 1 29 -2 29 -7 0 -4 -4 -8 -10 -8 -5 0 -10 -3 -10 -7 0 -5 16 -9 35 -10 32
-2 34 0 25 17 -8 16 -8 18 4 14 9 -3 15 -9 14 -12 -3 -24 3 -35 13 -25 17 17
58 4 54 -18 -2 -11 0 -17 5 -14 5 3 12 0 15 -6 4 -5 13 -8 21 -5 8 3 14 2 14
-3 0 -13 39 -20 47 -9 4 7 1 8 -7 3 -9 -6 -11 -4 -5 4 5 9 10 10 18 2 18 -18
31 -12 16 6 -13 16 -12 17 3 5 10 -8 14 -20 11 -29 -5 -12 -3 -14 8 -7 8 5 35
9 61 9 41 1 45 0 30 -13 -13 -10 -14 -15 -4 -18 6 -3 10 -10 7 -14 -3 -5 0
-12 6 -16 7 -4 9 -3 5 4 -3 6 -2 13 4 17 5 3 10 2 10 -3 0 -5 9 -12 19 -15 13
-3 18 0 15 7 -3 7 2 13 10 13 9 0 13 -8 11 -21 -4 -21 -3 -21 11 1 13 18 19
20 40 11 13 -6 20 -16 17 -22 -4 -6 0 -5 9 2 13 10 17 10 21 0 4 -10 6 -10 6
1 1 8 9 5 22 -10 11 -13 18 -19 16 -14 -2 6 -1 19 4 30 6 17 8 17 8 3 1 -10 6
-18 12 -18 5 0 7 6 3 13 -6 9 -5 9 7 0 11 -9 19 -9 26 -2 7 7 12 6 16 -4 4
-10 -2 -13 -20 -11 -24 2 -24 2 -7 -17 20 -22 32 -26 14 -4 -16 19 -7 19 30 0
17 -9 30 -21 30 -27 0 -7 7 -3 15 8 9 12 14 14 15 6 0 -7 12 0 26 15 15 15 21
21 15 11 -14 -20 -3 -29 39 -32 25 -2 27 0 17 13 -6 9 -1 7 11 -3 23 -20 56
-31 47 -16 -3 4 11 8 30 7 21 -1 35 -6 35 -13 0 -7 4 -15 9 -19 6 -3 8 3 6 13
-2 13 3 18 21 18 27 0 30 -6 12 -26 -7 -8 -3 -6 10 5 26 22 62 30 62 14 0 -5
-4 -8 -9 -5 -4 3 -17 -1 -27 -10 -18 -14 -17 -14 5 -3 22 10 23 9 17 -7 -5
-16 -4 -17 6 -4 18 21 45 24 51 5 4 -11 4 -10 3 2 -1 11 -9 17 -20 16 -13 -1
-15 2 -7 10 7 7 14 7 25 -2 8 -7 17 -8 20 -3 7 11 36 9 61 -5 16 -9 24 -8 39
5 11 9 16 12 13 5 -10 -15 14 -23 36 -11 10 5 21 7 25 4 3 -3 0 -6 -6 -6 -7 0
-12 -9 -12 -21 0 -11 -5 -17 -10 -14 -6 4 -7 11 -4 17 4 6 -3 5 -16 -2 -12 -6
-24 -9 -28 -6 -3 3 0 6 7 6 7 0 9 5 5 11 -4 8 -12 3 -20 -12 -14 -25 -19 -53
-6 -32 8 12 106 13 118 0 4 -4 14 -1 22 6 18 14 22 13 33 -5 7 -10 9 -10 9 0
0 9 5 10 17 3 12 -6 21 -5 31 7 7 10 10 11 6 3 -5 -9 -3 -12 4 -7 7 4 12 1 12
-6 0 -10 2 -10 9 1 6 9 11 10 15 2 5 -7 13 -8 25 -1 10 5 22 6 26 2 5 -4 5 1
2 10 -4 12 -2 15 8 11 8 -3 13 -9 10 -13 -3 -5 -1 -11 5 -15 5 -3 10 2 10 12
1 17 1 17 11 0 6 -9 15 -15 20 -12 5 4 6 12 2 18 -4 7 0 6 10 -2 9 -7 17 -10
17 -6 0 4 6 3 13 -4 10 -8 17 -7 25 1 9 9 12 9 12 -1 0 -7 5 -9 10 -6 6 4 8
12 4 18 -3 7 2 3 10 -7 9 -11 16 -14 16 -8 0 10 26 11 50 2 16 -6 36 -4 42 5
5 6 8 6 8 -2 0 -6 9 -10 19 -8 19 4 22 -9 7 -33 -5 -8 -3 -18 4 -25 10 -9 12
-9 8 3 -4 11 0 16 13 16 11 0 15 -4 9 -11 -5 -6 5 -11 32 -13 22 -1 37 1 35 6
-3 4 2 8 12 8 10 0 18 -6 18 -13 0 -7 -5 -9 -10 -6 -6 3 -7 1 -3 -6 4 -6 26
-21 48 -32 22 -11 37 -16 33 -10 -4 7 4 11 20 11 18 0 24 -4 19 -13 -5 -7 0
-6 11 3 11 9 16 10 11 3 -4 -9 -1 -13 9 -13 12 0 15 5 11 18 -6 16 -5 16 7 0
11 -14 16 -15 27 -5 10 10 11 9 5 -2 -6 -11 0 -13 27 -9 28 3 35 1 30 -11 -3
-9 -1 -12 6 -7 15 9 16 -6 1 -21 -8 -8 -7 -13 2 -18 8 -5 10 -4 5 3 -4 7 -2
12 4 12 8 0 9 11 5 32 -5 27 -4 30 5 15 17 -26 60 -67 60 -57 0 18 -5 25 -15
22 -5 -2 -4 2 2 9 20 20 52 19 48 -3 -5 -24 11 -24 17 0 3 10 12 19 21 19 9 0
14 -4 11 -9 -3 -5 -10 -6 -15 -3 -5 4 -9 2 -9 -4 0 -5 -3 -18 -7 -28 -5 -15
-2 -15 19 5 13 12 28 22 34 22 5 0 1 -5 -8 -11 -10 -5 -18 -15 -18 -21 0 -7 5
-7 14 1 11 9 15 9 20 -1 5 -11 7 -11 12 0 5 10 9 10 20 1 11 -9 18 -9 29 1 9
8 15 8 15 2 0 -6 11 -9 26 -6 52 9 67 7 58 -8 -4 -6 -3 -8 4 -4 5 3 12 3 15
-1 2 -5 2 -2 0 6 -2 8 2 11 11 8 7 -3 19 0 26 6 10 9 12 8 7 -5 -5 -14 -1 -15
23 -8 16 4 30 7 32 5 8 -8 67 -12 62 -4 -10 17 25 9 36 -8 11 -17 11 -17 6 0
-6 20 4 22 23 4 10 -8 12 -8 7 0 -3 6 -2 14 4 18 5 3 10 1 10 -4 0 -15 33 -14
49 2 8 7 11 7 8 1 -4 -7 3 -14 18 -16 21 -4 23 -3 13 9 -10 12 -7 12 17 1 23
-10 29 -10 33 0 2 8 9 7 20 -6 10 -10 13 -13 9 -6 -10 15 109 10 127 -5 9 -8
13 -7 13 4 0 8 -5 11 -10 8 -6 -3 -7 -1 -3 6 5 8 12 9 19 2 7 -5 28 -8 47 -6
19 1 41 -2 48 -8 9 -7 11 -5 5 9 -6 17 -5 18 12 4 11 -9 16 -10 11 -3 -4 7 -2
13 3 13 6 0 11 -4 11 -8 0 -10 31 -12 45 -3 17 12 40 6 37 -9 -3 -11 0 -11 15
0 10 8 19 15 21 16 1 1 0 8 -4 17 -4 12 -11 14 -24 7 -9 -5 -21 -6 -25 -2 -5
4 -5 0 0 -8 5 -8 5 -12 0 -8 -4 4 -14 3 -21 -3 -17 -14 -34 -3 -33 19 1 15 2
15 6 0 5 -19 15 -23 26 -11 4 3 1 13 -6 21 -10 13 -9 14 3 7 21 -13 40 -15 40
-4 0 6 4 8 9 5 5 -4 12 0 14 6 4 9 6 9 6 1 1 -6 10 -9 21 -6 11 3 28 -1 37 -8
15 -12 16 -12 11 3 -9 23 2 29 25 13 13 -9 26 -11 37 -5 10 5 21 6 25 2 5 -4
5 -1 1 6 -4 6 -3 12 3 12 5 0 12 -6 14 -12 4 -10 6 -10 6 0 1 6 6 12 12 12 5
0 8 -4 4 -9 -3 -5 -1 -13 5 -16 6 -4 9 -1 8 7 -2 7 4 13 12 13 8 0 14 -6 12
-13 -1 -8 2 -11 8 -7 8 5 8 11 0 20 -8 9 -8 15 0 20 5 3 10 1 10 -6 0 -7 3
-10 6 -6 3 3 1 14 -5 24 -6 10 -11 13 -11 6 0 -7 -8 -17 -18 -22 -15 -8 -18
-5 -19 12 0 12 1 16 4 10 3 -7 9 -13 14 -13 6 0 7 5 4 10 -7 11 5 14 48 11 17
-1 26 3 22 9 -3 5 -1 10 4 10 6 0 11 -3 11 -8 0 -4 15 -8 33 -8 17 -1 26 1 20
3 -7 3 -13 12 -12 21 0 11 2 12 6 5 2 -7 11 -13 20 -13 12 0 12 2 -1 16 -21
21 -21 22 13 20 17 -1 28 1 25 5 -2 4 0 10 6 14 5 3 10 1 10 -4 0 -6 5 -11 11
-11 6 0 8 7 5 16 -4 10 -2 13 7 7 6 -4 22 -8 33 -9 17 -1 21 4 19 27 -2 21 3
30 18 35 12 4 23 2 25 -5 2 -6 8 -8 14 -5 7 4 6 9 -2 14 -16 10 -3 33 14 27 7
-3 13 1 13 9 0 7 -4 11 -8 9 -4 -3 -9 2 -12 10 -6 15 16 11 40 -7 7 -6 14 -4
19 3 4 8 3 9 -4 5 -7 -4 -12 -1 -12 9 0 9 4 14 9 11 4 -3 7 6 5 20 -1 17 2 24
10 21 7 -3 13 1 13 9 0 7 -4 11 -8 8 -4 -2 -11 1 -15 7 -5 8 -3 9 6 4 10 -6
12 -4 6 10 -8 23 12 37 35 24 15 -8 17 -5 13 16 -2 14 -1 25 4 25 5 0 6 14 4
31 -3 20 0 34 9 40 9 6 10 9 2 9 -8 0 -11 17 -10 49 2 37 5 47 14 39 7 -5 16
-7 22 -4 5 4 12 -2 14 -11 4 -15 5 -15 6 -2 0 9 -7 23 -16 30 -14 12 -16 12
-8 0 5 -10 4 -12 -4 -7 -14 9 -5 26 13 26 8 0 20 8 27 18 11 14 11 15 -1 5
-21 -20 -30 -16 -30 13 0 19 4 25 14 21 10 -4 13 -1 9 9 -7 20 -18 18 -29 -7
-9 -20 -10 -20 -22 7 -11 25 -11 27 2 11 11 -15 15 -15 19 -3 4 9 -1 17 -12
21 -10 3 -18 12 -18 20 0 12 5 10 20 -5 20 -22 39 -22 43 -2 1 7 0 8 -3 2 -2
-5 -9 -10 -14 -10 -6 0 -8 4 -5 9 3 4 -2 17 -10 27 -9 10 -13 13 -9 7 4 -9 1
-11 -9 -7 -19 7 -20 16 -3 33 10 12 9 13 -7 7 -14 -5 -16 -3 -9 6 6 7 9 23 7
36 -2 13 0 21 5 18 5 -3 11 1 14 9 4 9 1 12 -9 8 -11 -4 -14 5 -15 43 -1 27
-1 53 0 58 1 5 -5 6 -13 3 -9 -4 -22 1 -31 9 -13 13 -13 19 -3 32 8 10 9 13 1
9 -18 -11 -22 16 -4 38 15 18 15 19 -2 6 -9 -8 -21 -11 -24 -7 -4 4 -3 10 3
14 18 13 11 57 -8 51 -24 -7 -44 -6 -49 3 -10 15 1 39 13 32 6 -4 6 1 -1 13
-6 11 -7 24 -3 28 4 5 1 5 -6 1 -7 -5 -11 -14 -8 -22 3 -7 1 -16 -5 -19 -5 -4
-8 -1 -7 7 2 8 -5 12 -17 11 -18 -2 -18 -1 3 9 12 6 22 15 22 20 0 12 -14 10
-30 -4 -12 -11 -12 -10 -2 3 6 9 8 19 4 24 -4 4 3 3 15 -4 30 -15 38 -14 23 4
-11 14 -10 14 14 5 25 -9 26 -9 15 13 l-12 22 23 -20 c13 -11 21 -15 17 -10
-3 6 4 17 16 24 18 11 20 11 10 0 -17 -17 -17 -34 0 -22 20 16 49 24 41 12 -4
-8 0 -8 14 0 12 7 19 19 17 29 -2 14 2 18 18 17 12 -1 32 2 44 6 17 6 25 4 33
-9 11 -15 11 -15 6 2 -5 15 -2 18 19 14 14 -3 25 -1 25 4 0 5 9 4 20 -2 16 -8
20 -8 18 2 -2 7 3 12 10 10 8 -1 11 2 6 9 -5 9 -2 10 9 6 10 -4 14 -2 11 7 -3
7 -11 13 -19 13 -8 0 -12 -4 -10 -8 3 -3 -2 -12 -9 -18 -10 -9 -16 -9 -21 -1
-4 6 -4 14 -1 17 3 4 6 1 6 -6 0 -7 4 -10 10 -6 5 3 6 13 3 22 -5 12 -2 15 10
10 9 -3 18 -3 21 1 2 4 23 7 45 5 36 -2 41 1 41 19 0 21 0 21 22 2 14 -12 18
-13 10 -3 -6 9 -9 18 -6 22 3 3 -2 4 -11 3 -9 -1 -21 -9 -25 -17 -7 -10 -9 -8
-7 8 0 12 3 20 5 18 2 -2 16 1 32 5 23 7 28 5 23 -6 -3 -8 -1 -14 5 -14 6 0 9
11 7 25 -1 17 1 22 9 16 12 -9 44 -7 54 5 4 4 -1 4 -10 1 -10 -3 -20 -2 -23 3
-4 6 1 10 9 10 9 0 16 5 16 11 0 5 5 7 12 3 7 -4 8 -3 4 5 -6 9 -12 9 -24 -1
-15 -12 -16 -11 -3 5 8 10 21 15 29 12 12 -4 13 -3 2 10 -15 18 0 20 19 3 11
-11 11 -9 0 9 -7 12 -17 19 -21 17 -15 -9 -8 3 9 17 9 8 14 9 10 3 -8 -13 20
-41 30 -30 3 3 1 6 -5 6 -7 0 -12 5 -12 10 0 6 3 9 8 9 21 -4 24 3 6 16 -15
12 -16 14 -2 9 13 -5 16 -1 13 16 -4 23 13 70 27 70 4 0 8 -4 8 -10 0 -5 -5
-10 -11 -10 -6 0 -8 -7 -5 -16 4 -10 2 -13 -6 -8 -7 4 -8 3 -4 -5 10 -15 26
-4 26 17 0 13 2 14 9 4 7 -11 10 -10 15 3 9 24 7 32 -4 15 -9 -13 -10 -13 -10
0 0 8 4 22 9 29 6 9 6 22 0 32 -6 12 -5 20 1 24 6 4 8 11 5 16 -4 5 0 9 7 9
10 0 10 2 1 8 -7 5 -9 13 -4 21 7 10 10 8 16 -8 4 -13 9 -20 12 -18 6 7 -16
50 -30 59 -7 4 -7 11 2 21 8 10 8 16 1 19 -5 1 -1 9 9 15 15 9 22 10 27 1 4
-7 3 -8 -4 -4 -7 4 -10 -1 -7 -14 2 -11 0 -18 -6 -15 -5 4 -4 -5 3 -19 14 -33
27 -33 23 -1 -1 14 3 25 9 25 7 0 7 3 1 8 -12 9 -16 104 -4 96 5 -3 6 2 3 10
-9 24 -22 19 -20 -7 1 -12 -2 -28 -7 -35 -5 -6 -6 -12 -1 -12 12 0 -19 -20
-31 -20 -5 0 -3 5 5 10 13 9 13 10 0 10 -9 1 -6 5 7 10 15 6 21 15 17 25 -3 8
-10 12 -15 9 -5 -3 -6 -10 -3 -16 5 -7 2 -8 -5 -3 -9 5 -7 13 8 29 12 12 18
25 15 29 -4 4 -12 0 -18 -9 -10 -13 -12 -13 -12 5 0 11 5 17 10 14 5 -4 7 1 3
11 -4 9 -3 15 2 12 5 -3 8 5 7 18 0 13 -4 22 -8 20 -4 -2 -9 0 -12 5 -4 5 -2
12 4 16 6 4 8 11 4 16 -3 5 -11 6 -17 2 -8 -5 -8 -2 0 9 7 8 9 19 5 23 -4 5
-1 4 7 0 11 -6 13 -4 6 11 -4 10 -8 28 -9 39 -1 11 -5 26 -10 34 -6 9 -5 12 2
7 7 -4 8 3 2 24 -6 20 -5 30 2 30 6 0 8 3 5 6 -4 4 -13 1 -22 -6 -9 -7 -18
-10 -22 -6 -3 3 -1 6 5 6 7 0 12 8 11 18 0 9 -3 12 -5 5 -10 -23 -30 -2 -32
34 -3 45 -7 50 -27 33 -9 -8 -15 -8 -15 -2 0 6 10 14 21 17 17 6 19 9 8 16
-12 7 -12 9 0 9 8 0 12 2 9 5 -10 10 -38 -7 -31 -19 4 -7 1 -7 -9 1 -8 7 -18
10 -21 7 -4 -4 -2 7 2 24 8 26 7 30 -6 25 -13 -5 -13 -2 -4 15 14 27 1 35 -42
28 -27 -5 -28 -5 -9 4 24 10 31 26 8 17 -9 -4 -12 0 -9 13 4 15 0 18 -19 14
-12 -2 -17 -2 -10 2 19 9 14 23 -6 17 -11 -2 -26 5 -37 19 -15 17 -16 20 -2 9
15 -12 17 -11 17 3 0 16 -8 20 -47 18 -22 -1 -22 -1 -2 19 23 23 37 25 18 2
-13 -15 -12 -15 9 -2 12 8 18 15 12 17 -6 2 -15 13 -21 25 -10 21 -10 21 5 3
10 -12 16 -15 16 -7 0 11 3 11 15 1 13 -11 14 -10 9 5 -6 15 -4 16 14 6 14 -7
22 -8 22 -2 0 6 8 8 18 4 9 -3 14 -3 11 1 -7 7 -44 17 -71 19 -9 1 -14 5 -11
10 3 5 11 6 18 3 7 -2 17 0 22 5 15 15 63 21 63 9 0 -6 -4 -8 -10 -5 -6 4 -7
-1 -3 -11 6 -16 8 -15 16 4 6 12 14 22 19 22 5 0 6 5 2 12 -4 7 -3 8 5 4 9 -6
9 -12 -1 -24 -11 -15 -11 -15 3 -5 8 7 26 10 40 7 21 -4 22 -3 4 5 -11 5 -15
10 -9 10 6 1 11 8 11 16 0 14 -10 19 -30 16 -5 -1 -6 3 -2 9 4 6 12 7 23 1 11
-6 20 -4 30 7 11 15 12 14 2 -6 -7 -13 -9 -26 -6 -30 3 -3 6 0 6 7 0 7 5 9 10
6 6 -4 9 -1 8 7 -2 7 4 14 12 14 8 1 20 2 26 3 17 1 25 29 12 37 -6 4 -8 3 -4
-4 3 -6 2 -13 -4 -17 -5 -3 -10 -1 -10 5 0 6 -4 8 -10 5 -5 -3 -10 -4 -10 -1
0 3 9 10 19 16 15 7 23 6 35 -6 20 -20 21 -6 1 16 -13 14 -13 17 0 17 8 0 12
-4 9 -9 -3 -4 0 -8 6 -8 8 0 10 9 7 23 -4 12 -2 29 4 37 8 12 9 10 4 -7 -5
-18 -3 -22 9 -17 8 3 13 14 11 24 -2 11 2 17 13 16 12 -1 17 6 16 21 -1 12 4
21 10 20 6 -1 10 7 8 18 -2 18 -2 19 8 2 6 -9 16 -14 22 -11 7 4 8 2 4 -5 -4
-6 -12 -8 -18 -5 -7 5 -8 2 -3 -6 6 -9 4 -11 -5 -5 -9 6 -11 4 -5 -5 6 -9 4
-11 -5 -5 -9 5 -11 4 -6 -3 5 -9 12 -8 26 1 11 6 21 14 21 17 3 11 10 76 10
95 1 11 3 14 6 7 3 -6 9 -10 14 -6 5 3 9 0 9 -5 0 -6 -4 -11 -9 -11 -5 0 -12
-8 -15 -17 -6 -14 -3 -14 16 3 13 12 30 19 38 17 9 -3 7 1 -5 12 -11 9 -15 14
-8 11 6 -4 14 -2 18 4 3 5 1 10 -4 10 -6 0 -11 5 -11 11 0 5 5 7 10 4 13 -8 8
18 -5 27 -6 5 -3 8 7 8 21 0 32 16 21 33 -11 18 -13 38 -2 31 5 -3 9 0 9 5 0
6 5 11 11 11 8 0 8 -4 1 -13 -6 -7 -7 -19 -3 -26 9 -14 21 7 27 47 3 22 -19
31 -31 13 -3 -6 -14 -9 -25 -8 -10 1 -16 5 -14 9 3 5 9 6 14 3 4 -3 21 2 36
10 16 8 23 15 15 15 -11 0 -9 4 5 14 18 14 18 15 1 22 -15 5 -16 9 -5 15 10 7
11 9 0 9 -7 0 -10 5 -7 10 4 6 12 7 18 3 7 -3 3 4 -8 17 -11 13 -14 20 -7 16
7 -4 12 -1 12 9 0 10 -5 13 -12 9 -10 -6 -10 -4 -2 7 13 17 14 49 2 49 -5 0
-6 5 -3 10 4 6 11 8 16 5 5 -3 6 1 3 9 -3 9 -11 13 -18 9 -6 -3 -6 -1 2 8 16
17 16 32 0 23 -10 -6 -10 -4 0 7 14 15 16 33 3 25 -5 -4 -8 1 -7 10 1 8 9 20
17 25 11 7 11 9 -3 9 -10 0 -18 5 -18 11 0 5 3 8 8 6 4 -3 7 15 8 39 0 25 -3
39 -7 32 -4 -6 -5 -17 -2 -23 4 -5 -3 -2 -14 8 -11 9 -23 15 -26 12 -4 -3 -5
-2 -2 2 3 3 0 12 -6 20 -9 10 -8 13 0 13 7 0 9 5 6 10 -4 6 -11 7 -17 4 -7 -4
-8 -2 -4 5 4 6 12 9 17 6 16 -11 10 7 -8 22 -10 8 -12 12 -6 8 9 -4 12 2 11
20 -2 22 -7 26 -25 22 -24 -4 -36 6 -38 33 -2 20 33 21 40 2 3 -10 0 -12 -10
-9 -8 4 -17 2 -19 -2 -5 -7 12 -8 47 -2 14 2 -25 36 -42 36 -9 0 -16 5 -16 12
0 6 -3 14 -7 18 -4 4 -4 14 -1 22 5 13 2 13 -15 4 -33 -18 -39 -12 -12 11 23
20 20 20 -23 3 -8 -4 -14 5 -15 26 -4 48 -16 57 -48 36 -7 -4 -15 0 -18 9 -3
8 -2 12 4 9 6 -3 10 -1 10 4 0 6 -4 11 -10 11 -5 0 -7 6 -4 13 4 10 -3 12 -26
9 -19 -3 -30 0 -30 7 0 7 5 9 13 5 7 -5 6 0 -3 12 -24 30 -43 42 -59 36 -10
-4 -12 -1 -6 8 6 9 4 11 -6 5 -23 -15 -53 -13 -66 4 -18 24 -16 41 5 34 9 -3
14 -3 10 1 -3 4 -12 8 -20 10 -7 1 -19 5 -26 10 -12 7 -12 4 -2 -15 l11 -24
-19 22 c-15 17 -22 19 -32 10 -10 -9 -11 -9 -6 0 3 6 2 14 -4 18 -5 3 -10 2
-10 -4 0 -6 -7 -8 -15 -5 -8 4 -12 10 -9 15 5 8 -9 13 -28 10 -4 0 -5 6 -1 15
5 13 7 13 14 2 8 -11 11 -11 18 1 5 8 7 21 4 30 -3 12 0 11 11 -3 10 -12 16
-15 16 -7 0 9 8 11 28 6 25 -6 26 -5 7 8 -10 8 -25 13 -32 10 -7 -3 -13 0 -13
7 0 6 4 9 9 6 5 -3 14 0 20 8 14 17 57 15 53 -3 -1 -7 2 -10 8 -6 6 3 8 11 5
16 -4 5 -1 9 6 9 8 0 8 4 -1 16 -8 8 -9 14 -4 13 17 -4 44 13 37 24 -3 6 -1 7
6 3 6 -4 9 -12 6 -17 -4 -5 -1 -9 4 -9 6 0 11 6 11 14 0 24 17 28 36 9 17 -17
18 -17 11 0 -6 15 -3 17 16 12 22 -7 22 -7 2 9 -12 9 -15 15 -7 16 8 0 10 5 6
12 -5 8 -2 9 11 4 16 -6 16 -4 4 10 -13 16 -12 16 8 6 16 -9 24 -9 29 0 5 7 3
8 -6 3 -9 -6 -11 -4 -6 4 5 7 14 10 20 8 7 -3 13 1 13 9 0 7 -4 11 -8 9 -4 -3
-2 6 4 19 l11 23 17 -21 c17 -20 17 -20 15 17 -3 32 -1 35 13 25 9 -7 13 -8 9
-4 -4 5 -3 15 4 23 6 7 8 16 4 20 -3 3 -6 1 -6 -5 0 -7 -5 -12 -11 -12 -8 0
-8 5 1 15 8 9 17 12 24 6 6 -4 19 -8 28 -8 13 0 15 4 7 18 -5 10 -17 23 -27
28 -23 14 -6 14 19 0 19 -9 19 -9 10 10 -15 28 -4 50 22 45 22 -5 22 -4 0 5
-27 12 -30 23 -5 20 33 -3 41 1 35 18 -4 10 -2 14 4 10 7 -4 10 0 8 10 -1 10
2 23 7 30 6 7 5 14 -3 19 -8 5 -9 3 -4 -6 5 -9 4 -11 -4 -6 -9 6 -9 11 0 22 9
11 9 18 -1 29 -11 13 -10 14 3 10 13 -6 14 -1 7 29 -4 20 -4 36 1 36 4 0 13 9
19 20 6 12 7 20 1 20 -5 0 -12 -8 -14 -17 -3 -10 -5 -4 -6 13 0 16 -6 35 -11
40 -7 7 -6 11 4 11 8 0 12 -5 9 -10 -4 -6 -1 -7 7 -2 10 6 9 11 -6 23 -18 13
-18 14 4 7 13 -4 22 -2 22 5 0 6 -4 9 -9 5 -6 -3 -15 5 -22 17 -11 21 -11 22
5 9 14 -12 16 -12 10 3 -3 9 -14 16 -23 16 -13 0 -13 2 -2 9 8 5 11 16 8 24
-3 9 -1 18 6 21 7 2 5 5 -5 5 -9 1 -20 5 -23 11 -3 5 0 7 8 4 19 -7 32 12 16
22 -8 5 -9 3 -4 -7 5 -8 4 -10 0 -6 -16 14 -14 39 2 33 12 -5 13 -4 5 7 -7 8
-9 17 -5 20 3 4 1 7 -5 7 -7 0 -12 -5 -12 -12 0 -6 -3 -8 -7 -4 -5 4 1 14 11
22 11 8 15 14 9 14 -6 0 -9 10 -7 23 4 20 4 20 -5 2 -4 -11 -7 -23 -4 -27 2
-5 -1 -8 -7 -8 -7 0 -9 8 -5 20 4 11 2 20 -4 20 -6 0 -11 -6 -11 -14 0 -8 -4
-17 -8 -20 -5 -3 -6 9 -4 26 4 24 2 29 -9 24 -8 -4 -4 1 9 13 13 11 18 22 12
26 -5 3 -10 1 -10 -4 0 -6 -4 -11 -9 -11 -5 0 -8 8 -6 18 1 9 -3 23 -9 31 -8
11 -8 13 2 7 7 -4 12 -1 12 8 0 11 -9 16 -29 16 -30 0 -46 11 -34 24 3 3 12 1
20 -6 11 -8 12 -7 8 5 -4 8 -16 18 -28 22 -22 6 -22 6 -2 15 19 8 17 10 -25
15 -11 1 -26 3 -32 4 -8 1 -6 7 6 16 13 10 24 11 37 4 15 -7 17 -6 13 6 -3 8
-10 12 -15 9 -5 -3 -9 0 -9 6 0 6 -5 8 -12 3 -7 -4 -22 -9 -33 -10 -16 -2 -17
-1 -5 6 8 5 19 7 25 5 5 -3 2 1 -8 10 -11 8 -24 13 -30 12 -7 -2 -9 -1 -4 1
14 8 -4 22 -21 17 -14 -5 -15 -4 -2 5 10 7 19 6 30 -4 11 -10 20 -11 30 -4 12
9 11 10 -4 5 -14 -5 -17 -2 -12 9 3 9 2 13 -4 10 -5 -3 -19 -1 -31 6 -17 9
-20 8 -13 -3 6 -10 4 -10 -10 1 -15 13 -19 13 -28 0 -8 -12 -9 -12 -5 1 2 8
12 14 21 14 9 -1 16 2 16 7 0 5 -6 9 -14 9 -8 0 -17 4 -21 9 -3 6 6 8 22 5 15
-3 25 -2 22 1 -4 3 -19 8 -35 11 -35 6 -46 13 -39 25 6 9 -8 13 -34 10 -8 -2
-10 2 -5 10 4 8 3 10 -4 5 -8 -4 -12 0 -12 11 0 15 -2 16 -10 3 -5 -8 -10 -10
-10 -4 0 7 -9 14 -19 17 -15 3 -18 1 -14 -12 4 -12 2 -11 -9 3 -10 13 -17 15
-22 8 -4 -7 -13 -12 -19 -12 -8 0 -8 3 1 9 8 4 14 12 14 17 -1 5 6 8 14 6 8
-2 14 2 14 8 0 6 -5 8 -12 4 -7 -5 -9 -2 -6 8 5 13 3 14 -17 4 -12 -5 -21 -16
-18 -22 2 -7 0 -15 -6 -19 -7 -4 -8 0 -4 11 5 13 3 15 -7 9 -10 -6 -11 -4 -4
6 14 23 13 38 -2 32 -8 -3 -11 -9 -8 -14 3 -5 0 -9 -5 -9 -6 0 -11 4 -11 8 0
4 -11 9 -25 10 -14 1 -25 -3 -25 -10 0 -6 -3 -9 -6 -6 -3 4 -1 17 6 30 l11 23
-20 -24 c-12 -13 -21 -18 -21 -11 0 10 -3 10 -15 0 -9 -7 -18 -10 -22 -6 -3 3
-1 6 6 6 7 0 11 6 8 13 -2 6 0 20 5 31 10 18 9 18 -21 0 -17 -10 -32 -25 -34
-33 -4 -12 -5 -12 -6 2 -1 12 -5 16 -13 11 -9 -5 -9 -2 1 9 16 20 26 23 15 5
-5 -9 -2 -9 9 1 22 17 22 17 -8 17 -14 0 -25 -4 -25 -9 0 -4 -4 -5 -10 -2 -5
3 -19 8 -31 10 -17 3 -19 2 -9 -10 7 -8 17 -12 24 -8 6 3 7 2 3 -2 -11 -13
-38 -15 -30 -2 4 6 0 8 -10 4 -10 -4 -14 -2 -11 6 2 7 -4 13 -16 14 -13 1 -18
-2 -14 -10 5 -8 3 -8 -7 1 -15 14 -43 17 -35 3 3 -4 -6 -6 -19 -3 -14 2 -22 8
-20 12 3 5 1 11 -4 14 -5 4 -13 1 -17 -5 -5 -8 -3 -9 6 -4 9 5 11 4 6 -3 -5
-9 -13 -9 -27 -2 -13 7 -19 7 -19 0 0 -13 -34 -8 -54 9 -14 12 -16 12 -11 0 6
-17 -31 -24 -40 -8 -4 5 2 6 12 2 10 -3 15 -3 12 1 -4 4 -16 8 -27 11 -16 3
-20 0 -16 -13 5 -14 2 -13 -10 2 -15 18 -21 15 -17 -8 1 -5 -10 -1 -25 9 -20
13 -26 14 -22 3 4 -9 -1 -14 -12 -14 -10 0 -18 4 -17 9 1 5 -4 12 -11 14 -8 3
-10 -1 -6 -11 3 -9 1 -16 -5 -16 -6 0 -11 7 -11 16 0 8 -5 12 -10 9 -6 -4 -8
-10 -6 -14 6 -9 -51 -7 -60 2 -15 15 -26 6 -13 -10 13 -15 12 -15 -12 1 -35
22 -80 31 -77 14 3 -11 -9 -13 -42 -9 -7 1 -7 8 0 24 10 19 9 20 -2 5 -7 -9
-18 -25 -25 -35 -14 -22 -13 3 2 27 7 12 5 12 -11 -1 -29 -25 -47 -28 -68 -10
-18 15 -19 15 -13 -2 6 -15 4 -16 -16 -6 -21 12 -21 11 -7 -7 14 -18 14 -18
-4 -4 -21 16 -77 14 -88 -4 -6 -8 -8 -7 -8 2 0 9 -10 12 -32 10 -18 -3 -44 -2
-58 2 -15 4 -30 1 -39 -7 -10 -11 -16 -11 -27 -2 -8 6 -14 9 -14 7 0 -3 -18
-2 -40 2 -22 4 -38 4 -35 0 5 -8 -78 -6 -92 3 -14 9 -55 -22 -47 -36 4 -7 3
-8 -1 -4 -13 11 -15 38 -3 31 7 -4 8 -2 4 5 -6 9 -11 9 -23 -1 -18 -15 -45
-20 -37 -7 3 5 -2 9 -11 9 -9 0 -14 -4 -11 -9 7 -10 -9 -8 -37 4 -9 4 -26 5
-37 2 -16 -4 -18 -2 -10 13 15 28 12 32 -8 13 -11 -10 -17 -22 -14 -27 3 -5 0
-6 -7 -2 -6 4 -9 11 -6 16 3 5 -3 9 -12 9 -42 1 -51 5 -46 19 4 9 8 10 12 3 4
-6 19 -8 35 -5 21 3 26 1 20 -8 -4 -7 -3 -9 1 -5 19 17 13 34 -11 31 -13 -1
-27 2 -30 8 -3 5 -15 2 -27 -9 -11 -10 -17 -12 -13 -5 5 8 0 12 -14 12 -12 0
-18 5 -15 10 3 6 4 10 0 10 -3 0 -10 -10 -15 -22 -8 -22 -9 -22 -9 -2 -1 11
-8 29 -16 40 -15 18 -15 18 -8 0 4 -13 3 -17 -5 -12 -6 3 -13 2 -17 -3 -3 -6
3 -8 15 -6 11 2 20 -1 20 -7 0 -5 -6 -8 -14 -5 -7 3 -18 1 -24 -5 -15 -15 -5
41 11 62 10 13 10 13 -5 2 -9 -8 -22 -11 -27 -7 -18 10 -91 13 -97 3 -3 -5
-14 -1 -24 9 -16 17 -16 19 -1 38 15 18 15 19 0 7 -14 -10 -20 -10 -35 5 -17
17 -17 17 -11 1 8 -22 1 -23 -19 -3 -8 8 -22 11 -31 8 -13 -5 -15 -2 -10 13 5
14 2 12 -13 -6 l-19 -25 4 24 c2 13 2 21 -2 17 -8 -8 -34 14 -28 23 2 4 -2 8
-10 8 -8 0 -12 -4 -9 -9 3 -4 0 -8 -5 -8 -6 0 -11 8 -12 18 0 14 -2 14 -9 -3
-7 -15 -9 -16 -9 -4 -1 12 -9 16 -30 14 -29 -2 -48 16 -36 35 3 5 0 12 -6 16
-8 4 -9 3 -5 -4 4 -7 2 -12 -5 -12 -10 0 -10 -3 -1 -12 7 -7 12 -17 12 -22 0
-6 -7 0 -16 12 -8 12 -20 20 -25 17 -5 -4 -9 -1 -9 5 0 6 -4 9 -9 6 -5 -3 -12
1 -15 9 -5 13 -2 13 24 0 17 -9 30 -12 30 -7 0 15 -62 32 -77 21 -9 -9 -13 -8
-13 0 0 7 -4 9 -10 6 -5 -3 -10 -1 -10 5 0 6 -4 8 -10 5 -5 -3 -10 -2 -10 4 0
5 6 12 13 14 7 4 6 6 -5 6 -9 1 -19 -5 -21 -11 -4 -10 -6 -10 -6 -1 -1 6 4 15
9 18 6 3 10 11 10 17 0 6 -9 3 -20 -7 -18 -17 -20 -17 -14 -2 5 13 2 16 -12
10 -14 -5 -16 -3 -11 13 7 18 6 18 -7 1 -8 -11 -17 -14 -20 -8 -4 5 -2 12 4
16 5 3 10 12 10 18 0 8 -3 8 -9 -1 -6 -11 -10 -10 -15 3 -3 10 -12 15 -20 12
-11 -4 -14 0 -11 16 4 19 2 20 -8 7 -13 -17 -47 -15 -47 1 0 6 3 8 8 6 4 -3 7
8 7 23 1 19 -3 26 -10 20 -5 -4 -22 -6 -36 -3 -25 4 -26 8 -24 56 2 61 -2 72
-20 57 -11 -9 -12 -7 -8 9 3 13 1 21 -6 21 -7 0 -9 -5 -5 -12 5 -9 2 -8 -10 1
-9 8 -14 21 -11 29 3 8 0 22 -7 30 -11 13 -10 15 6 9 15 -6 16 -5 8 5 -6 7
-12 29 -14 48 -2 23 -8 34 -16 32 -8 -1 -11 2 -7 8 3 6 11 8 16 4 7 -4 9 7 7
27 -2 21 3 39 12 47 12 10 9 10 -15 2 -27 -9 -28 -9 -11 4 18 15 13 42 -6 30
-7 -4 -8 -2 -4 5 4 6 12 9 17 5 6 -3 8 6 6 23 -3 21 -9 27 -23 25 -15 -2 -16
-1 -4 7 8 5 18 7 22 5 4 -3 8 2 8 10 0 9 -4 16 -10 16 -5 0 -10 5 -10 11 0 5
5 7 10 4 16 -10 12 6 -7 29 -10 12 -11 15 -3 9 23 -21 35 -15 15 7 -13 14 -14
19 -4 15 12 -4 14 10 13 83 l-1 89 26 -1 c21 -1 26 4 27 29 1 17 2 31 4 33 1
1 3 12 3 25 0 14 -5 21 -14 19 -10 -1 -9 2 4 11 21 17 22 37 2 37 -8 0 -15 5
-15 11 0 5 5 7 10 4 18 -11 32 6 18 23 -11 14 -10 15 7 9 l20 -7 -20 16 c-14
11 -16 18 -7 21 6 3 12 9 12 14 0 6 -5 7 -11 3 -8 -5 -8 -1 0 14 8 15 8 22 -2
25 -9 4 -9 6 1 6 7 1 10 6 7 11 -3 6 -2 10 3 10 15 0 22 -26 11 -37 -6 -6 -4
-15 7 -24 12 -9 15 -10 10 -1 -4 7 -2 12 6 12 9 0 9 3 -2 10 -13 9 -13 10 0
10 13 0 13 1 0 10 -8 5 -10 10 -4 10 7 0 14 10 17 23 6 22 6 22 -10 2 -14 -18
-15 -18 -9 -2 3 10 6 21 6 23 0 2 7 4 16 4 8 0 12 5 9 10 -4 6 -11 8 -16 5 -5
-3 -6 2 -2 11 5 13 3 15 -7 9 -9 -5 -11 -4 -6 4 5 8 12 9 20 2 8 -7 12 -5 12
9 0 10 -4 16 -8 14 -15 -9 -8 14 8 27 14 12 14 14 -2 26 -13 10 -14 15 -5 27
9 11 9 15 -1 18 -8 3 -6 6 5 11 9 3 19 1 23 -5 5 -7 2 -8 -7 -3 -8 5 -11 5 -7
0 4 -4 3 -14 -4 -22 -8 -11 -7 -12 6 -7 9 3 16 10 16 16 0 5 6 6 13 2 6 -4 9
-3 4 1 -4 5 0 16 9 26 10 11 12 19 5 24 -6 3 -11 24 -11 46 0 30 3 38 13 33 8
-5 8 -3 -2 9 -7 9 -18 14 -24 10 -6 -4 -7 -1 -3 6 5 7 15 10 23 6 12 -4 13 -2
6 7 -5 7 -10 25 -11 41 -1 19 3 27 16 28 14 0 14 2 2 7 -8 4 -17 16 -18 26 -3
17 -2 18 12 7 14 -12 16 -11 10 3 -3 9 -9 16 -13 16 -15 0 -7 30 8 31 14 0 14
1 1 7 -8 4 -16 16 -17 27 -1 19 -1 19 12 2 12 -17 13 -17 19 0 4 10 4 14 0 11
-3 -4 -12 -1 -19 5 -10 10 -9 14 9 24 l21 12 -24 9 c-20 7 -21 10 -8 15 11 4
14 12 10 23 -5 13 -3 15 8 9 11 -7 12 -6 3 6 -6 8 -11 23 -11 34 0 11 5 26 11
34 8 11 8 13 0 8 -7 -4 -15 1 -20 11 -11 26 -10 47 4 45 12 -3 37 35 29 44 -3
2 -8 -5 -12 -16 -4 -12 -12 -18 -21 -14 -12 4 -12 8 3 19 10 7 14 14 8 14 -5
0 -3 5 5 11 12 8 9 9 -10 4 -14 -3 -20 -3 -15 2 15 12 17 43 3 43 -9 0 -9 3 2
10 13 9 13 10 0 11 -10 0 -8 3 5 9 15 6 16 9 4 9 -16 1 -23 31 -7 31 4 0 8 -4
8 -10 0 -5 5 -10 10 -10 6 0 5 8 -2 19 -7 11 -16 18 -20 15 -4 -3 -5 2 -2 10
4 10 1 16 -7 16 -8 0 -5 6 7 16 10 8 13 13 7 9 -7 -3 -13 -1 -13 4 0 6 5 11
11 11 6 0 1 9 -12 21 -13 11 -18 18 -11 14 6 -3 12 -1 12 5 0 6 5 8 11 4 6 -3
4 5 -5 19 -13 20 -14 26 -4 30 8 3 6 6 -5 6 -10 1 -16 5 -12 11 3 5 13 7 23 4
15 -5 15 -4 -1 6 -14 9 -15 15 -7 25 8 9 8 15 0 20 -6 3 -8 10 -5 15 3 5 1 11
-4 14 -5 4 -12 2 -16 -3 -7 -12 -35 -3 -35 11 0 5 4 7 9 3 5 -3 12 -1 16 5 5
9 -7 14 -27 11 -4 0 -5 6 -2 14 4 8 10 13 14 10 5 -3 12 0 16 6 4 8 3 9 -4 5
-6 -3 -16 3 -22 15 -8 15 -9 19 -1 15 6 -4 11 -2 11 3 0 6 -8 11 -17 12 -11 0
-13 3 -5 6 15 6 16 33 1 33 -5 0 -8 -4 -5 -8 3 -5 -1 -9 -9 -9 -19 0 -19 7 0
21 13 10 12 14 -7 36 -27 30 -33 50 -16 50 7 1 2 8 -12 16 -14 8 -18 13 -10
11 10 -3 15 3 15 19 0 13 -6 24 -13 24 -7 0 -11 -4 -8 -8 2 -4 -4 -8 -15 -8
-19 0 -19 1 -1 16 19 15 38 65 21 54 -5 -3 -9 -14 -9 -25 0 -12 -4 -17 -11
-13 -6 3 -9 14 -6 24 3 13 0 17 -9 13 -10 -4 -14 3 -15 23 -1 39 -6 65 -15 72
-4 4 -4 -1 -1 -10 4 -12 1 -18 -8 -18 -8 0 -15 7 -15 16 0 9 -7 22 -16 29 -14
9 -14 16 -5 33 7 12 8 22 4 21 -20 -3 -31 2 -37 17 -5 13 -4 14 7 6 14 -12 27
-7 27 10 0 9 -29 6 -49 -6 -10 -6 -12 -5 -7 2 4 8 0 12 -11 12 -15 0 -15 2 -3
9 8 6 18 7 22 5 4 -3 5 2 2 10 -3 9 -10 16 -16 16 -5 0 -6 -5 -2 -12 4 -7 3
-8 -5 -4 -6 4 -9 11 -6 16 3 5 1 11 -5 15 -6 4 -8 11 -5 16 3 5 -1 6 -9 3 -9
-3 -16 -10 -16 -16 0 -5 5 -6 12 -2 7 4 8 3 4 -5 -10 -16 -29 -2 -22 16 5 11
2 13 -10 9 -15 -6 -15 -4 0 18 15 24 15 25 -4 21 -11 -2 -23 1 -26 7 -4 7 -2
8 4 4 7 -4 12 -2 12 3 0 6 -5 11 -11 11 -5 0 -8 4 -5 8 2 4 0 14 -6 22 -8 12
-9 12 -4 -2 3 -10 1 -18 -3 -18 -5 0 -7 -10 -5 -22 4 -21 4 -21 -4 -3 -5 11
-7 26 -4 34 4 10 1 12 -9 6 -12 -7 -12 -6 -1 7 9 11 10 18 2 23 -6 3 -8 10 -5
15 3 5 0 12 -6 16 -8 4 -7 9 2 15 8 5 9 9 3 9 -17 0 -32 -22 -29 -46 1 -11 -4
-21 -10 -21 -12 0 -12 37 -1 56 4 5 1 13 -5 17 -7 4 -9 3 -5 -4 4 -7 -1 -10
-14 -9 -21 1 -29 17 -8 17 6 0 4 6 -7 13 -10 8 -15 19 -11 25 4 7 -3 8 -23 2
-25 -7 -29 -6 -24 8 5 11 2 14 -9 9 -22 -8 -29 2 -17 25 10 18 9 19 -13 8 -19
-10 -21 -10 -10 1 17 18 15 34 -3 19 -10 -9 -15 -9 -15 -1 0 6 -5 11 -11 11
-5 0 -7 -4 -4 -10 3 -6 -1 -7 -10 -4 -14 6 -14 8 2 20 17 13 17 14 -1 7 -16
-5 -18 -2 -14 20 3 16 1 24 -5 20 -6 -3 -21 -7 -34 -9 -17 -2 -23 2 -19 11 3
10 0 12 -12 8 -15 -6 -15 -4 -4 10 10 12 11 21 3 34 -6 10 -11 13 -11 7 0 -7
-9 -14 -20 -17 -15 -4 -26 2 -37 20 -15 23 -18 23 -29 9 -10 -15 -12 -14 -17
6 -6 22 -7 22 -22 3 -16 -19 -16 -19 -5 3 10 20 7 26 -12 23 -5 0 -8 4 -8 10
0 8 -4 8 -12 2 -16 -11 -27 -11 -54 5 -12 6 -24 9 -27 5 -4 -3 -2 9 3 26 8 28
7 31 -5 21 -8 -7 -12 -17 -8 -23 3 -6 1 -7 -5 -3 -6 4 -9 13 -6 20 3 8 1 17
-5 21 -7 3 -8 0 -5 -9 3 -9 1 -16 -5 -16 -6 0 -11 5 -11 10 0 6 -5 10 -11 10
-5 0 -8 -4 -5 -8 3 -5 -2 -9 -10 -9 -8 0 -13 5 -11 12 3 6 -5 11 -18 11 -13 0
-22 -3 -19 -7 5 -9 -22 -20 -30 -12 -3 4 -6 11 -6 17 0 6 5 4 11 -4 9 -13 10
-13 6 0 -3 13 -12 15 -48 11 -5 0 -7 -6 -3 -12 5 -8 1 -8 -14 0 -14 8 -23 8
-27 1 -4 -7 -12 -7 -18 -2 -7 4 -19 8 -27 7 -8 -1 -24 3 -34 8 -16 8 -18 6
-12 -9 5 -16 4 -17 -6 -4 -17 20 -53 27 -42 8 6 -11 5 -11 -8 0 -11 9 -18 10
-23 2 -3 -6 -10 -8 -15 -5 -5 3 -11 1 -15 -5 -4 -6 -11 -8 -16 -4 -5 3 -7 10
-4 15 4 5 1 9 -5 9 -6 0 -8 5 -5 11 5 6 12 4 22 -8 14 -16 14 -16 1 6 -25 42
-38 37 -33 -11z m725 -162 c0 -2 -8 -10 -17 -17 -16 -13 -17 -12 -4 4 13 16
21 21 21 13z m213 -221 c-9 -16 -10 -16 -16 -1 -5 12 -3 15 5 10 8 -5 9 -1 4
12 -5 14 -4 16 4 7 8 -7 9 -17 3 -28z m85 -38 c-1 -2 3 -11 11 -20 9 -11 10
-17 2 -17 -6 0 -11 3 -12 8 0 4 -2 15 -4 25 -2 11 -1 17 2 14 2 -3 3 -7 1 -10z
m-1668 -127 c0 -5 -5 -10 -11 -10 -5 0 -7 5 -4 10 3 6 8 10 11 10 2 0 4 -4 4
-10z m1954 -325 c3 -8 1 -15 -4 -15 -6 0 -10 7 -10 15 0 8 2 15 4 15 2 0 6 -7
10 -15z m70 -154 c17 -19 17 -19 0 -17 -9 2 -18 10 -20 19 -3 21 -1 21 20 -2z
m-1910 -162 c3 -3 -4 -5 -14 -6 -11 -1 -22 2 -24 6 -5 8 30 8 38 0z m1991 -28
c-3 -5 -1 -13 5 -16 8 -5 8 -11 1 -19 -6 -7 -9 -15 -6 -17 2 -3 -6 -6 -18 -6
-14 -2 -17 1 -9 6 10 6 10 10 -2 21 -16 12 -12 35 4 25 5 -3 11 -1 15 5 3 5 8
10 11 10 3 0 3 -4 -1 -9z m-11 -97 c3 -8 2 -12 -4 -9 -6 3 -10 10 -10 16 0 14
7 11 14 -7z m-1939 -144 c-3 -5 -12 -10 -18 -10 -7 0 -6 4 3 10 19 12 23 12
15 0z m5 -67 c0 -5 -4 -14 -9 -21 -7 -11 -9 -11 -14 1 -3 8 -3 18 0 21 9 8 23
7 23 -1z m1975 -192 c3 -5 2 -12 -3 -15 -5 -3 -9 1 -9 9 0 17 3 19 12 6z
m-1911 -213 c-3 -4 0 -8 6 -8 6 0 8 -5 4 -12 -5 -8 -1 -9 12 -4 15 6 17 5 7
-5 -10 -10 -17 -9 -33 9 -24 25 -25 29 -5 29 8 0 12 -4 9 -9z m1883 -230 c-3
-8 -6 -5 -6 6 -1 11 2 17 5 13 3 -3 4 -12 1 -19z m12 -75 c-8 -9 -15 -10 -24
-3 -6 5 -15 7 -18 3 -4 -3 -7 -1 -7 5 0 7 5 12 11 12 5 0 7 5 4 10 -4 6 4 5
19 -1 20 -10 23 -15 15 -26z m-1879 -128 c0 -2 -5 -7 -12 -11 -7 -5 -8 -3 -3
6 6 9 4 12 -7 8 -8 -4 -15 0 -15 7 0 10 5 11 19 4 10 -5 18 -12 18 -14z m1748
-311 c9 5 10 -23 0 -39 -3 -6 -4 -19 -3 -31 1 -16 -3 -20 -22 -16 -16 3 -22
10 -21 27 1 13 5 23 8 23 3 0 14 0 25 1 19 2 19 2 -2 20 -13 11 -23 22 -23 26
0 4 7 2 15 -5 8 -6 18 -9 23 -6z m-1863 -54 c3 -6 -1 -7 -9 -4 -18 7 -21 14
-7 14 6 0 13 -4 16 -10z m-50 -60 c3 -5 -1 -10 -10 -10 -9 0 -13 5 -10 10 3 6
8 10 10 10 2 0 7 -4 10 -10z m1830 -340 c3 -6 -1 -7 -9 -4 -18 7 -21 14 -7 14
6 0 13 -4 16 -10z m-2155 -210 c-8 -5 -19 -10 -25 -10 -5 0 -3 5 5 10 8 5 20
10 25 10 6 0 3 -5 -5 -10z m2205 -70 c3 -5 1 -10 -4 -10 -6 0 -11 5 -11 10 0
6 2 10 4 10 3 0 8 -4 11 -10z m40 -29 c3 -5 2 -12 -3 -15 -5 -3 -9 1 -9 9 0
17 3 19 12 6z m-2364 -46 c16 10 10 -1 -10 -19 -19 -17 -20 -17 -19 14 1 25 3
28 10 16 5 -9 13 -14 19 -11z m2512 -128 c3 -8 1 -20 -5 -28 -8 -11 -9 -10 -4
4 3 9 1 17 -5 17 -6 0 -7 5 -4 10 8 13 12 13 18 -3z m222 -157 c3 -6 -1 -7 -9
-4 -18 7 -21 14 -7 14 6 0 13 -4 16 -10z m154 -48 c7 -14 6 -19 -3 -19 -6 0
-13 9 -13 19 -1 10 0 18 2 18 2 0 9 -8 14 -18z m85 -30 c3 -5 -1 -9 -9 -9 -8
0 -12 4 -9 9 3 4 7 8 9 8 2 0 6 -4 9 -8z m53 -32 c2 -19 -8 -26 -20 -14 -7 7
2 34 12 34 4 0 7 -9 8 -20z m148 -39 c3 -5 0 -13 -6 -17 -7 -4 -9 -3 -5 4 3 5
0 13 -6 15 -9 4 -10 6 -1 6 6 1 14 -3 18 -8z m-27 -19 c2 -7 -1 -12 -8 -12 -6
0 -9 4 -6 9 4 5 1 12 -4 14 -6 3 -5 4 2 3 6 -1 14 -8 16 -14z m1126 -80 c3 -5
-1 -9 -9 -9 -8 0 -12 4 -9 9 3 4 7 8 9 8 2 0 6 -4 9 -8z m703 -37 c0 -8 -4
-12 -9 -9 -4 3 -8 -3 -9 -13 0 -11 -3 -13 -6 -5 -3 7 1 19 7 27 15 19 17 19
17 0z m-1472 -15 c3 -5 1 -10 -4 -10 -6 0 -11 5 -11 10 0 6 2 10 4 10 3 0 8
-4 11 -10z m1763 -127 c6 -2 12 3 12 10 0 8 4 7 10 -3 11 -18 14 -40 2 -25 -4
6 -16 11 -26 10 -11 0 -21 7 -23 15 -3 9 -1 11 4 5 4 -5 14 -11 21 -12z m55
-38 c4 -8 3 -16 -1 -19 -4 -3 -9 4 -9 15 -2 23 3 25 10 4z m-6218 -205 c4 -6
-1 -7 -11 -3 -13 5 -15 3 -9 -7 5 -9 4 -11 -4 -6 -6 4 -9 12 -6 17 8 12 22 12
30 -1z m-1795 -45 c-6 -7 -7 -14 -4 -17 3 -3 0 -9 -7 -14 -8 -4 -10 -3 -5 4 4
7 3 12 -2 12 -6 0 -12 6 -15 13 -3 8 3 13 19 13 16 0 20 -3 14 -11z m604 -6
c4 6 13 8 21 4 8 -3 15 -1 15 4 0 14 28 12 34 -3 3 -8 -2 -11 -13 -9 -20 4
-43 -8 -41 -21 1 -5 -4 -10 -12 -12 -10 -3 -10 -2 1 6 8 6 9 12 3 16 -6 3 -13
2 -17 -4 -4 -6 -11 -8 -16 -5 -5 4 -9 1 -9 -6 0 -7 -3 -9 -6 -6 -4 4 -1 13 5
21 7 8 10 21 6 28 -4 7 0 5 8 -5 9 -11 18 -14 21 -8z m7607 -2 c-10 -9 -11 -8
-5 6 3 10 9 15 12 12 3 -3 0 -11 -7 -18z m-7706 -17 c3 -6 -1 -7 -9 -4 -18 7
-21 14 -7 14 6 0 13 -4 16 -10z m983 -67 c0 -15 -3 -20 -8 -13 -4 7 -14 9 -21
6 -8 -4 -5 0 5 8 18 15 18 16 2 16 -9 0 -15 4 -11 10 10 17 33 -1 33 -27z
m-253 7 c3 -6 -1 -7 -9 -4 -18 7 -21 14 -7 14 6 0 13 -4 16 -10z m45 0 c0 -5
-4 -10 -10 -10 -5 0 -10 5 -10 10 0 6 5 10 10 10 6 0 10 -4 10 -10z m-1756
-458 c3 -5 -1 -9 -9 -9 -8 0 -12 4 -9 9 3 4 7 8 9 8 2 0 6 -4 9 -8z m8782 -56
c-1 -8 -7 -20 -14 -28 -6 -8 -8 -19 -4 -23 4 -5 1 -5 -6 -1 -10 6 -10 11 -1
22 6 8 8 14 4 14 -4 0 -2 7 5 15 15 19 19 19 16 1z m-8823 -76 c3 -11 1 -18
-4 -14 -5 3 -9 12 -9 20 0 20 7 17 13 -6z m8747 -80 c8 -5 12 -11 10 -14 -3
-2 -14 2 -24 10 -22 15 -10 19 14 4z m-8818 -94 c7 4 8 2 4 -4 -4 -6 -13 -9
-21 -6 -8 4 -12 11 -8 17 5 8 8 7 11 -1 2 -7 9 -9 14 -6z m8 -30 c0 -3 -4 -8
-10 -11 -5 -3 -10 -1 -10 4 0 6 5 11 10 11 6 0 10 -2 10 -4z m-43 -193 c0 -9
-4 -10 -14 -2 -7 6 -13 12 -13 14 0 1 6 2 13 2 8 0 14 -6 14 -14z m-17 -32 c0
-6 -4 -12 -8 -15 -5 -3 -9 1 -9 9 0 8 4 15 9 15 4 0 8 -4 8 -9z m8689 -178
c-10 -11 -15 -11 -30 3 -15 13 -16 20 -8 31 10 11 15 11 30 -3 15 -13 16 -20
8 -31z m121 -68 c0 -2 -6 -8 -13 -14 -10 -8 -14 -7 -14 2 0 8 6 14 14 14 7 0
13 -1 13 -2z m-8890 -65 c0 -5 -5 -10 -11 -10 -5 0 -7 5 -4 10 3 6 8 10 11 10
2 0 4 -4 4 -10z m8970 -44 c0 -2 -7 -6 -15 -10 -8 -3 -15 -1 -15 4 0 6 7 10
15 10 8 0 15 -2 15 -4z m-9013 -700 c0 -8 -6 -12 -15 -9 -11 5 -11 7 0 14 7 5
13 9 14 9 0 0 1 -6 1 -14z m-17 -26 c0 -5 -2 -10 -4 -10 -3 0 -8 5 -11 10 -3
6 -1 10 4 10 6 0 11 -4 11 -10z m9110 0 c0 -5 -4 -10 -10 -10 -5 0 -10 5 -10
10 0 6 5 10 10 10 6 0 10 -4 10 -10z m-9110 -29 c0 -4 -6 -8 -13 -8 -8 0 -14
6 -14 13 0 7 6 10 14 7 7 -3 13 -8 13 -12z m30 -4 c0 -2 -10 -12 -22 -23 l-23
-19 19 23 c18 21 26 27 26 19z m-38 -104 c-6 -2 -9 -10 -6 -15 4 -7 2 -8 -5
-4 -13 9 -5 26 12 25 9 0 8 -2 -1 -6z m-5 -115 c4 -28 -6 -18 -12 12 -2 12 -1
20 2 16 4 -4 8 -16 10 -28z m-4 -93 c4 -8 3 -16 -1 -19 -4 -3 -9 4 -9 15 -2
23 3 25 10 4z m8569 -143 c-7 -2 -10 -8 -7 -12 3 -5 0 -12 -7 -16 -7 -4 -10
-4 -6 1 4 4 2 15 -5 23 -9 13 -9 14 1 8 7 -4 12 -2 12 4 0 6 5 8 12 4 9 -6 9
-9 0 -12z m275 -408 c-3 -3 -12 -4 -19 -1 -8 3 -5 6 6 6 11 1 17 -2 13 -5z
m-8762 -93 c-3 -6 -11 -11 -16 -11 -5 0 -4 6 3 14 14 16 24 13 13 -3z m8615
-691 c0 -5 -4 -10 -10 -10 -5 0 -10 5 -10 10 0 6 5 10 10 10 6 0 10 -4 10 -10z
m-8375 -61 c-4 -5 1 -9 10 -9 9 0 13 -5 9 -11 -4 -8 -9 -8 -17 0 -14 14 -19
43 -6 35 5 -3 7 -10 4 -15z m40 1 c3 -6 -1 -7 -9 -4 -18 7 -21 14 -7 14 6 0
13 -4 16 -10z m7861 -312 c-1 -7 -7 -22 -14 -33 -10 -18 -11 -18 -12 -2 0 9 5
17 10 17 6 0 9 3 9 8 -2 11 1 22 5 22 2 0 3 -6 2 -12z m-5109 -82 c0 -8 -6
-12 -14 -9 -7 3 -10 9 -7 14 8 14 21 11 21 -5z m-360 -9 c0 -8 -6 -14 -14 -14
-9 0 -10 4 -2 14 6 7 12 13 14 13 1 0 2 -6 2 -13z m-234 -22 c-3 -9 -8 -14
-10 -11 -3 3 -2 9 2 15 9 16 15 13 8 -4z m-83 -15 c0 -5 -5 -10 -11 -10 -5 0
-7 5 -4 10 3 6 8 10 11 10 2 0 4 -4 4 -10z m5830 -34 c0 -2 -7 -7 -16 -10 -8
-3 -12 -2 -9 4 6 10 25 14 25 6z m-6110 -16 c0 -5 -5 -10 -11 -10 -5 0 -7 5
-4 10 3 6 8 10 11 10 2 0 4 -4 4 -10z m-14 -52 c-14 -9 -30 7 -22 21 5 8 11 7
20 -2 10 -9 11 -14 2 -19z m-326 -18 c0 -5 -5 -10 -11 -10 -5 0 -7 5 -4 10 3
6 8 10 11 10 2 0 4 -4 4 -10z m1537 -19 c1 -14 -1 -19 -4 -11 -3 8 -10 20 -14
26 -5 6 -4 11 4 11 7 0 13 -12 14 -26z m-2336 -78 c-12 -20 -14 -14 -5 12 4 9
9 14 11 11 3 -2 0 -13 -6 -23z m265 -36 c11 4 15 2 12 -7 -2 -7 -20 -14 -41
-15 -26 -1 -34 2 -27 10 6 7 6 15 2 20 -4 4 3 3 15 -4 12 -6 29 -8 39 -4z
m7044 -107 c0 -4 -6 -10 -13 -13 -8 -3 -13 3 -13 19 0 18 3 21 13 12 7 -6 13
-14 13 -18z m-4560 -35 c0 -2 -6 -8 -13 -14 -10 -8 -14 -7 -14 2 0 8 6 14 14
14 7 0 13 -1 13 -2z m576 -230 c-3 -8 2 -11 13 -8 11 3 18 -1 18 -11 0 -11 -4
-13 -12 -6 -7 5 -15 7 -18 3 -4 -3 -13 0 -22 7 -12 10 -13 16 -4 26 13 16 33
8 25 -11z m214 -75 c0 -5 -2 -10 -4 -10 -3 0 -8 5 -11 10 -3 6 -1 10 4 10 6 0
11 -4 11 -10z m30 -5 c0 -8 -2 -15 -4 -15 -2 0 -6 7 -10 15 -3 8 -1 15 4 15 6
0 10 -7 10 -15z m325 -55 c9 0 12 6 9 18 -5 14 -4 14 4 2 14 -18 6 -30 -19
-30 -14 0 -18 -4 -13 -12 5 -8 1 -8 -12 2 -29 22 -30 24 -11 17 15 -6 17 -3
12 16 -5 19 -4 20 5 5 6 -10 17 -18 25 -18z m3182 -36 c-3 -4 -2 -15 3 -25 7
-12 6 -20 -2 -25 -7 -4 -10 -4 -6 1 4 4 3 15 -2 25 -8 16 -4 30 8 30 3 0 2 -3
-1 -6z m-2563 -21 c-5 -15 -3 -15 10 1 14 17 16 18 16 3 0 -9 -4 -17 -10 -17
-5 0 -9 -4 -7 -9 1 -5 -2 -9 -8 -9 -5 0 -9 4 -7 9 3 13 -12 11 -26 -3 -7 -7
-12 -9 -12 -5 0 6 40 47 47 47 1 0 0 -8 -3 -17z m120 4 c-2 -7 -14 -18 -25
-25 -18 -11 -23 -11 -34 5 -7 10 -11 20 -9 22 2 3 10 -3 17 -13 12 -16 14 -16
31 3 22 24 27 26 20 8z m166 -7 c0 -5 -2 -10 -4 -10 -3 0 -8 5 -11 10 -3 6 -1
10 4 10 6 0 11 -4 11 -10z m2259 -24 c-3 -3 -11 5 -18 17 -13 21 -12 21 5 5
10 -10 16 -20 13 -22z m-2495 6 c3 -5 -1 -9 -9 -9 -8 0 -12 4 -9 9 3 4 7 8 9
8 2 0 6 -4 9 -8z m96 4 c0 -3 -4 -8 -10 -11 -5 -3 -10 -1 -10 4 0 6 5 11 10
11 6 0 10 -2 10 -4z m40 -11 c0 -2 -6 -5 -13 -8 -8 -3 -14 1 -14 8 0 7 6 11
14 8 7 -3 13 -6 13 -8z m375 -35 c3 -5 1 -10 -4 -10 -6 0 -11 5 -11 10 0 6 2
10 4 10 3 0 8 -4 11 -10z m135 -65 c-8 -9 -9 -15 -2 -15 6 0 16 8 21 18 6 9
11 12 11 6 0 -25 -26 -35 -54 -20 -28 14 -19 33 9 22 8 -3 15 0 15 6 0 6 3 8
6 5 4 -4 1 -13 -6 -22z m1510 -29 c0 -3 -4 -8 -10 -11 -5 -3 -10 -1 -10 4 0 6
5 11 10 11 6 0 10 -2 10 -4z m-1246 -21 c-4 -8 -11 -12 -16 -9 -6 4 -5 10 3
15 19 12 19 11 13 -6z m1006 -5 c0 -5 -5 -10 -11 -10 -5 0 -7 5 -4 10 3 6 8
10 11 10 2 0 4 -4 4 -10z m110 -26 c0 -8 -19 -13 -24 -6 -3 5 1 9 9 9 8 0 15
-2 15 -3z"/>
<path d="M6351 8674 c6 -7 16 -11 21 -8 11 7 3 17 -18 20 -12 2 -13 -1 -3 -12z"/>
<path d="M6226 7191 c-4 -5 -2 -12 3 -15 5 -4 12 -2 15 3 4 5 2 12 -3 15 -5 4
-12 2 -15 -3z"/>
<path d="M9226 4182 c-3 -6 1 -15 8 -21 8 -7 17 -8 20 -3 3 6 -1 15 -8 21 -8
7 -17 8 -20 3z"/>
<path d="M4957 9948 c4 -7 8 -16 9 -20 1 -5 2 -11 3 -14 0 -4 7 -1 14 5 8 6
17 8 20 4 4 -3 7 -1 7 6 0 7 5 9 13 4 11 -7 21 -9 77 -16 14 -1 30 -6 36 -10
6 -3 14 -3 18 1 4 4 13 7 19 7 7 1 11 7 9 14 -2 9 3 11 14 7 14 -5 15 -4 4 9
-11 14 -14 13 -27 -5 -15 -21 -43 -27 -43 -9 0 5 4 8 9 5 5 -3 14 1 21 9 9 10
9 15 1 15 -6 0 -11 -5 -11 -11 0 -6 -5 -7 -12 -2 -7 4 -21 9 -31 10 -15 2 -17
-2 -12 -19 5 -21 5 -21 -9 2 -9 14 -15 19 -16 11 0 -11 -3 -11 -17 0 -13 11
-17 11 -21 1 -3 -10 -7 -10 -18 -1 -11 9 -18 9 -29 -1 -10 -9 -15 -9 -15 -1 0
6 -5 11 -11 11 -6 0 -7 -5 -2 -12z m52 -1 c-2 -1 -13 -9 -24 -17 -19 -14 -19
-14 -6 3 7 9 18 17 24 17 6 0 8 -1 6 -3z m45 -5 c3 -5 -1 -9 -9 -9 -8 0 -12 4
-9 9 3 4 7 8 9 8 2 0 6 -4 9 -8z m69 -9 c-3 -7 -6 -13 -8 -13 -2 0 -5 6 -8 13
-3 8 1 14 8 14 7 0 11 -6 8 -14z"/>
<path d="M5247 9929 c7 -7 15 -10 18 -7 3 3 -2 9 -12 12 -14 6 -15 5 -6 -5z"/>
<path d="M4647 9877 c-14 -22 -14 -23 7 -23 13 0 23 6 23 13 0 7 -4 13 -9 13
-5 0 -6 5 -3 10 13 21 -3 9 -18 -13z"/>
<path d="M5414 9889 c-3 -6 -2 -15 3 -20 5 -5 9 -1 9 11 0 23 -2 24 -12 9z"/>
<path d="M5445 9850 c-4 -6 -12 -7 -18 -4 -7 4 -8 3 -4 -1 13 -15 34 -14 34 1
0 17 -4 18 -12 4z"/>
<path d="M5510 9831 c0 -5 8 -15 17 -22 11 -10 14 -10 9 -1 -4 7 -2 12 6 12 9
0 9 3 -2 10 -19 12 -30 13 -30 1z"/>
<path d="M5560 9815 c0 -2 6 -8 13 -14 10 -8 14 -7 14 2 0 8 -6 14 -14 14 -7
0 -13 -1 -13 -2z"/>
<path d="M5586 9768 c3 -5 10 -6 15 -3 13 9 11 12 -6 12 -8 0 -12 -4 -9 -9z"/>
<path d="M4427 9752 c6 -15 5 -16 -13 -2 -17 14 -18 13 -7 -1 7 -9 9 -20 5
-25 -4 -5 3 0 16 10 26 23 26 22 8 29 -11 4 -13 1 -9 -11z"/>
<path d="M4360 9690 c13 -8 13 -10 -2 -10 -9 0 -20 -5 -23 -11 -9 -13 27 -8
37 6 12 16 9 25 -9 25 -15 0 -16 -2 -3 -10z"/>
<path d="M5753 9685 c0 -8 4 -12 9 -9 5 3 6 10 3 15 -9 13 -12 11 -12 -6z"/>
<path d="M5826 9605 c4 -8 11 -15 16 -15 6 0 5 6 -2 15 -7 8 -14 15 -16 15 -2
0 -1 -7 2 -15z"/>
<path d="M5880 9568 c0 -4 4 -8 9 -8 6 0 12 4 15 8 3 5 -1 9 -9 9 -8 0 -15 -4
-15 -9z"/>
<path d="M6011 9444 c0 -11 3 -14 6 -6 3 7 2 16 -1 19 -3 4 -6 -2 -5 -13z"/>
<path d="M6035 9370 c3 -5 8 -10 11 -10 2 0 4 5 4 10 0 6 -5 10 -11 10 -5 0
-7 -4 -4 -10z"/>
<path d="M6175 9201 c-3 -5 -2 -12 3 -15 5 -3 9 1 9 9 0 17 -3 19 -12 6z"/>
<path d="M6310 8911 c0 -6 4 -13 10 -16 6 -3 7 1 4 9 -7 18 -14 21 -14 7z"/>
<path d="M4360 8691 c0 -5 5 -13 10 -16 6 -3 10 -2 10 4 0 5 -4 13 -10 16 -5
3 -10 2 -10 -4z"/>
<path d="M6420 8381 c0 -6 4 -13 10 -16 6 -3 7 1 4 9 -7 18 -14 21 -14 7z"/>
<path d="M4398 8303 c7 -3 16 -2 19 1 4 3 -2 6 -13 5 -11 0 -14 -3 -6 -6z"/>
<path d="M4430 8292 c0 -5 7 -9 15 -9 8 0 12 4 9 9 -3 4 -9 8 -15 8 -5 0 -9
-4 -9 -8z"/>
<path d="M6403 8243 c0 -9 6 -9 21 -1 30 15 30 16 3 14 -13 0 -24 -6 -24 -13z"/>
<path d="M4435 8230 c-3 -5 -1 -10 4 -10 6 0 11 5 11 10 0 6 -2 10 -4 10 -3 0
-8 -4 -11 -10z"/>
<path d="M6421 8227 c2 -1 13 -9 24 -17 19 -14 19 -14 6 3 -7 9 -18 17 -24 17
-6 0 -8 -1 -6 -3z"/>
<path d="M6430 8179 c0 -5 5 -7 10 -4 6 3 10 8 10 11 0 2 -4 4 -10 4 -5 0 -10
-5 -10 -11z"/>
<path d="M6430 8151 c0 -6 4 -12 8 -15 5 -3 9 1 9 9 0 8 -4 15 -9 15 -4 0 -8
-4 -8 -9z"/>
<path d="M6439 8118 c-8 -27 -5 -36 9 -30 10 4 12 7 4 10 -7 2 -10 8 -6 13 3
5 3 9 0 9 -3 0 -6 -1 -7 -2z"/>
<path d="M6433 7975 c0 -8 4 -12 9 -9 5 3 6 10 3 15 -9 13 -12 11 -12 -6z"/>
<path d="M4485 7870 c-3 -5 -1 -10 5 -10 6 0 8 -4 5 -10 -3 -5 -2 -10 4 -10 5
0 9 9 8 20 -1 21 -12 26 -22 10z"/>
<path d="M4467 7836 c-5 -12 -3 -15 5 -10 8 5 9 1 4 -12 -5 -14 -4 -16 4 -7 8
7 9 17 3 28 -9 16 -10 16 -16 1z"/>
<path d="M4495 7770 c-3 -5 -1 -10 4 -10 6 0 11 5 11 10 0 6 -2 10 -4 10 -3 0
-8 -4 -11 -10z"/>
<path d="M4473 7745 c0 -7 6 -11 14 -8 7 3 13 6 13 8 0 2 -6 5 -13 8 -8 3 -14
-1 -14 -8z"/>
<path d="M4478 7713 c7 -3 16 -2 19 1 4 3 -2 6 -13 5 -11 0 -14 -3 -6 -6z"/>
<path d="M4497 7696 c-11 -11 -17 -12 -27 -3 -8 8 -8 5 1 -11 8 -12 15 -18 17
-12 2 6 8 7 13 4 16 -9 -10 -34 -29 -27 -13 4 -12 2 3 -10 18 -15 18 -16 3
-17 -22 0 -24 -17 -3 -17 13 0 16 4 15 22 -1 3 6 13 15 21 11 11 13 20 6 28
-7 9 -7 16 1 24 7 7 9 12 6 12 -4 0 -13 -6 -21 -14z"/>
<path d="M6376 7632 c-2 -4 -1 -14 4 -22 7 -11 9 -9 7 8 -1 24 -3 26 -11 14z"/>
<path d="M4426 7452 c-3 -5 1 -9 9 -9 8 0 15 4 15 9 0 4 -4 8 -9 8 -6 0 -12
-4 -15 -8z"/>
<path d="M4393 7375 c0 -8 4 -15 9 -15 4 0 8 4 8 9 0 6 -4 12 -8 15 -5 3 -9
-1 -9 -9z"/>
<path d="M6240 7110 c-9 -6 -10 -10 -3 -10 6 0 15 5 18 10 8 12 4 12 -15 0z"/>
<path d="M4036 6688 c3 -4 9 -8 15 -8 5 0 9 4 9 8 0 5 -7 9 -15 9 -8 0 -12 -4
-9 -9z"/>
<path d="M6247 6560 c10 -11 19 -20 21 -20 1 0 -2 9 -8 20 -6 11 -15 20 -20
20 -6 0 -2 -9 7 -20z"/>
<path d="M3836 6447 c3 -10 9 -15 12 -12 3 3 0 11 -7 18 -10 9 -11 8 -5 -6z"/>
<path d="M6290 6456 c0 -2 7 -7 16 -10 8 -3 12 -2 9 4 -6 10 -25 14 -25 6z"/>
<path d="M6313 6415 c0 -8 4 -12 9 -9 5 3 6 10 3 15 -9 13 -12 11 -12 -6z"/>
<path d="M6807 6129 c7 -7 15 -10 18 -7 3 3 -2 9 -12 12 -14 6 -15 5 -6 -5z"/>
<path d="M6956 6052 c-2 -4 -1 -14 4 -22 7 -11 9 -9 7 8 -1 24 -3 26 -11 14z"/>
<path d="M7907 5949 c7 -7 15 -10 18 -7 3 3 -2 9 -12 12 -14 6 -15 5 -6 -5z"/>
<path d="M8150 5949 c0 -5 5 -7 10 -4 6 3 10 8 10 11 0 2 -4 4 -10 4 -5 0 -10
-5 -10 -11z"/>
<path d="M8210 5950 c0 -5 5 -10 11 -10 5 0 7 5 4 10 -3 6 -8 10 -11 10 -2 0
-4 -4 -4 -10z"/>
<path d="M8016 5935 c4 -8 11 -15 16 -15 6 0 5 6 -2 15 -7 8 -14 15 -16 15 -2
0 -1 -7 2 -15z"/>
<path d="M8232 5934 c-7 -8 -8 -14 -3 -14 10 0 25 19 20 25 -2 1 -10 -3 -17
-11z"/>
<path d="M8310 5940 c0 -5 7 -7 15 -4 8 4 15 8 15 10 0 2 -7 4 -15 4 -8 0 -15
-4 -15 -10z"/>
<path d="M8384 5938 c3 -15 26 -23 26 -8 0 6 -4 9 -9 6 -5 -4 -12 -1 -14 4 -3
6 -4 5 -3 -2z"/>
<path d="M7935 5930 c-3 -5 -1 -10 4 -10 6 0 11 5 11 10 0 6 -2 10 -4 10 -3 0
-8 -4 -11 -10z"/>
<path d="M7991 5923 c7 -12 15 -20 18 -17 3 2 -3 12 -13 22 -17 16 -18 16 -5
-5z"/>
<path d="M8181 5923 c6 -7 17 -13 23 -12 7 0 6 2 -2 6 -6 2 -10 8 -8 12 3 4
-1 8 -9 8 -11 0 -12 -4 -4 -14z"/>
<path d="M8265 5931 c3 -2 -2 -9 -11 -15 -13 -10 -13 -12 5 -12 11 0 18 2 16
5 -3 2 2 9 11 15 13 10 13 12 -5 12 -11 0 -18 -2 -16 -5z"/>
<path d="M8350 5929 c0 -5 5 -7 10 -4 6 3 10 8 10 11 0 2 -4 4 -10 4 -5 0 -10
-5 -10 -11z"/>
<path d="M7791 5917 c-8 -10 -7 -14 2 -14 8 0 14 6 14 14 0 7 -1 13 -2 13 -2
0 -8 -6 -14 -13z"/>
<path d="M7836 5921 c-3 -5 1 -11 9 -14 9 -4 12 -1 8 9 -6 16 -10 17 -17 5z"/>
<path d="M8107 5917 c-3 -8 1 -14 8 -14 7 0 11 6 8 14 -3 7 -6 13 -8 13 -2 0
-5 -6 -8 -13z"/>
<path d="M7685 5906 c21 -15 35 -12 35 7 0 8 -3 8 -9 -2 -6 -9 -11 -10 -15 -2
-4 6 -12 11 -19 11 -6 0 -2 -6 8 -14z"/>
<path d="M8530 5912 c0 -5 7 -9 15 -9 8 0 12 4 9 9 -3 4 -9 8 -15 8 -5 0 -9
-4 -9 -8z"/>
<path d="M9190 5771 c0 -6 4 -13 10 -16 6 -3 7 1 4 9 -7 18 -14 21 -14 7z"/>
<path d="M9356 5552 c-3 -5 1 -9 9 -9 8 0 12 4 9 9 -3 4 -7 8 -9 8 -2 0 -6 -4
-9 -8z"/>
<path d="M1650 5452 c0 -4 9 -8 20 -9 11 -1 20 2 20 5 0 4 -9 8 -20 9 -11 1
-20 -2 -20 -5z"/>
<path d="M1705 5450 c4 -6 11 -8 16 -5 14 9 11 15 -7 15 -8 0 -12 -5 -9 -10z"/>
<path d="M1746 5445 c4 -8 10 -15 15 -15 4 0 6 7 3 15 -4 8 -10 15 -15 15 -4
0 -6 -7 -3 -15z"/>
<path d="M1947 5449 c7 -7 15 -10 18 -7 3 3 -2 9 -12 12 -14 6 -15 5 -6 -5z"/>
<path d="M1139 5427 c6 -8 7 -18 3 -22 -4 -5 -2 -5 5 -1 14 8 6 36 -9 36 -7 0
-6 -5 1 -13z"/>
<path d="M1924 5432 c3 -6 1 -12 -6 -14 -7 -3 -5 -7 6 -11 10 -4 15 -3 11 3
-3 6 -2 10 4 10 5 0 11 -5 13 -12 3 -7 7 -4 12 7 4 11 4 16 0 13 -4 -4 -16 -3
-27 3 -12 7 -17 7 -13 1z"/>
<path d="M1990 5436 c0 -2 7 -7 16 -10 8 -3 12 -2 9 4 -6 10 -25 14 -25 6z"/>
<path d="M1980 5409 c0 -5 5 -7 10 -4 6 3 10 8 10 11 0 2 -4 4 -10 4 -5 0 -10
-5 -10 -11z"/>
<path d="M2186 5403 c-6 -14 -5 -15 5 -6 7 7 10 15 7 18 -3 3 -9 -2 -12 -12z"/>
<path d="M2500 5388 c0 -4 5 -8 11 -8 5 0 7 -5 3 -12 -4 -7 -3 -8 5 -4 6 4 14
1 16 -7 8 -18 51 -14 46 4 -2 8 -4 19 -4 26 0 7 -5 9 -11 5 -17 -10 -48 -13
-42 -4 3 5 -1 9 -9 9 -8 0 -15 -4 -15 -9z"/>
<path d="M2859 5398 c-5 -18 -6 -38 -1 -34 7 8 12 36 6 36 -2 0 -4 -1 -5 -2z"/>
<path d="M2795 5380 c-3 -6 -17 -8 -31 -6 -13 3 -24 1 -24 -3 0 -14 49 -9 61
5 6 8 9 14 6 14 -3 0 -9 -5 -12 -10z"/>
<path d="M9547 5145 c3 -8 9 -12 14 -9 12 7 11 11 -5 17 -10 4 -13 1 -9 -8z"/>
<path d="M9550 5045 c-11 -13 -10 -14 4 -9 9 3 16 10 16 15 0 13 -6 11 -20 -6z"/>
<path d="M9546 4972 c-2 -4 4 -8 14 -8 10 0 16 4 14 8 -3 4 -9 8 -14 8 -5 0
-11 -4 -14 -8z"/>
<path d="M645 4739 c-10 -15 3 -25 16 -12 7 7 7 13 1 17 -6 3 -14 1 -17 -5z"/>
<path d="M9473 4725 c0 -8 4 -12 9 -9 5 3 6 10 3 15 -9 13 -12 11 -12 -6z"/>
<path d="M532 4411 c-9 -25 -8 -29 4 -24 7 3 11 9 8 14 -3 6 0 16 6 24 8 9 8
15 2 15 -5 0 -15 -13 -20 -29z"/>
<path d="M9165 4420 c-3 -5 -1 -10 5 -10 6 0 8 -4 5 -10 -3 -5 -1 -10 5 -10 7
0 9 7 6 16 -5 14 -4 15 9 4 8 -7 15 -8 15 -2 0 5 -7 13 -16 16 -21 8 -22 8
-29 -4z"/>
<path d="M9083 4377 c-3 -6 -1 -7 5 -3 5 3 12 1 14 -6 3 -8 6 -7 10 3 7 17
-19 22 -29 6z"/>
<path d="M9046 4312 c-3 -5 1 -9 9 -9 8 0 12 4 9 9 -3 4 -7 8 -9 8 -2 0 -6 -4
-9 -8z"/>
<path d="M9140 4236 c0 -2 7 -9 15 -16 9 -7 15 -8 15 -2 0 5 -7 12 -15 16 -8
3 -15 4 -15 2z"/>
<path d="M466 4212 c-3 -5 1 -9 9 -9 8 0 12 4 9 9 -3 4 -7 8 -9 8 -2 0 -6 -4
-9 -8z"/>
<path d="M475 4181 c-3 -5 -2 -12 3 -15 5 -3 9 1 9 9 0 17 -3 19 -12 6z"/>
<path d="M495 4150 c-3 -5 -13 -7 -23 -4 -14 5 -14 4 -3 -4 14 -10 51 0 51 13
0 9 -19 5 -25 -5z"/>
<path d="M460 4109 c0 -5 5 -7 10 -4 6 3 10 8 10 11 0 2 -4 4 -10 4 -5 0 -10
-5 -10 -11z"/>
<path d="M9546 3803 c-4 -9 0 -23 9 -32 13 -14 15 -14 15 2 0 10 -4 15 -10 12
-5 -3 -10 -1 -10 4 0 6 5 11 10 11 6 0 10 5 10 10 0 16 -17 11 -24 -7z"/>
<path d="M420 3690 c0 -6 7 -10 15 -10 8 0 15 2 15 4 0 2 -7 6 -15 10 -8 3
-15 1 -15 -4z"/>
<path d="M409 3581 c8 -5 16 -22 18 -38 2 -16 0 -23 -5 -16 -5 9 -11 7 -20 -7
-10 -16 -10 -20 0 -18 8 2 12 -5 10 -17 -2 -20 -2 -20 12 -1 9 10 13 23 10 27
-3 5 0 9 5 9 13 0 10 22 -4 32 -6 5 -5 8 3 8 6 0 12 5 12 11 0 5 -4 8 -9 4 -5
-3 -12 -1 -16 5 -3 5 -12 10 -18 10 -8 0 -7 -4 2 -9z"/>
<path d="M410 3374 c0 -17 17 -36 24 -26 3 5 -1 15 -9 22 -8 7 -15 9 -15 4z"/>
<path d="M9440 3030 c-9 -6 -10 -10 -3 -10 6 0 15 5 18 10 8 12 4 12 -15 0z"/>
<path d="M9390 3009 c0 -5 -5 -7 -12 -3 -7 4 -8 3 -4 -5 4 -6 0 -14 -8 -17 -9
-3 -16 -10 -16 -14 0 -12 30 -6 31 6 0 5 8 17 16 27 10 10 12 17 5 17 -7 0
-12 -5 -12 -11z"/>
<path d="M9083 2823 c-19 -7 -16 -19 6 -19 11 0 17 5 14 13 -3 7 -6 13 -7 12
0 0 -7 -3 -13 -6z"/>
<path d="M399 2722 c9 -7 10 -11 2 -15 -7 -4 -8 -5 0 -3 15 2 13 20 -3 24 -10
3 -10 2 1 -6z"/>
<path d="M9050 2707 c0 -2 6 -10 14 -16 11 -9 16 -9 22 1 4 7 4 10 -1 6 -4 -4
-14 -3 -22 3 -7 6 -13 9 -13 6z"/>
<path d="M420 2563 c0 -13 -3 -13 -17 -2 -15 11 -16 11 -5 -1 15 -18 16 -34 0
-24 -7 4 -8 3 -4 -4 10 -17 26 -15 26 3 0 7 7 18 16 23 15 8 15 10 0 15 -11 4
-16 1 -16 -10z"/>
<path d="M9163 2525 c0 -8 4 -12 9 -9 5 3 6 10 3 15 -9 13 -12 11 -12 -6z"/>
<path d="M410 2469 c0 -5 5 -7 10 -4 6 3 10 8 10 11 0 2 -4 4 -10 4 -5 0 -10
-5 -10 -11z"/>
<path d="M9313 2253 c4 -3 1 -13 -6 -22 -11 -14 -10 -14 6 -2 20 15 22 31 5
31 -6 0 -8 -3 -5 -7z"/>
<path d="M9290 2208 c6 -7 6 -16 0 -23 -11 -14 25 -14 37 0 5 4 2 5 -6 0 -9
-5 -12 -3 -9 6 3 8 11 13 17 11 7 -1 10 2 6 8 -5 8 -11 8 -19 1 -8 -7 -17 -7
-24 -1 -9 7 -9 7 -2 -2z"/>
<path d="M470 2178 c0 -4 7 -8 16 -8 8 0 12 -4 9 -10 -3 -5 -2 -17 3 -26 8
-15 10 -15 15 0 4 10 3 15 -3 11 -14 -9 -12 9 2 23 7 7 10 12 8 13 -29 5 -50
4 -50 -3z"/>
<path d="M9309 2158 c-13 -47 2 -82 24 -59 9 9 8 11 -6 5 -13 -5 -16 -2 -11
10 3 9 11 13 18 10 6 -3 3 1 -6 9 -10 8 -15 17 -11 20 3 4 3 7 0 7 -4 0 -7 -1
-8 -2z"/>
<path d="M660 1630 c-12 -8 -12 -10 -1 -10 8 0 11 -7 9 -18 -4 -12 1 -18 13
-18 12 0 15 4 9 12 -6 6 -7 14 -3 17 3 4 1 7 -6 7 -7 0 -9 5 -6 10 8 12 4 12
-15 0z"/>
<path d="M8753 1371 c-4 -3 -9 -14 -9 -24 -2 -15 1 -16 14 -5 8 7 25 12 36 11
16 -1 16 0 3 3 -9 3 -15 9 -13 13 6 9 -20 10 -31 2z"/>
<path d="M8765 1330 c-3 -6 1 -7 9 -4 18 7 21 14 7 14 -6 0 -13 -4 -16 -10z"/>
<path d="M8675 1321 c-3 -5 -2 -12 3 -15 5 -3 9 1 9 9 0 17 -3 19 -12 6z"/>
<path d="M8606 1288 c3 -5 10 -6 15 -3 13 9 11 12 -6 12 -8 0 -12 -4 -9 -9z"/>
<path d="M3311 1094 c0 -11 3 -14 6 -6 3 7 2 16 -1 19 -3 4 -6 -2 -5 -13z"/>
<path d="M3203 1093 c-7 -3 -13 -9 -13 -15 0 -7 4 -7 13 -1 6 6 20 9 30 7 11
-1 16 0 13 4 -9 8 -28 10 -43 5z"/>
<path d="M8690 1089 c0 -6 -7 -8 -16 -5 -15 6 -15 4 -3 -10 8 -10 15 -12 17
-5 2 6 8 9 13 6 5 -4 6 1 3 9 -7 19 -14 21 -14 5z"/>
<path d="M3025 1080 c-3 -5 1 -10 9 -10 9 0 16 5 16 10 0 6 -4 10 -9 10 -6 0
-13 -4 -16 -10z"/>
<path d="M3084 1068 l-19 -23 23 19 c21 18 27 26 19 26 -2 0 -12 -10 -23 -22z"/>
<path d="M2675 1020 c-3 -5 -5 -10 -3 -11 33 -8 38 -7 27 7 -14 17 -16 17 -24
4z"/>
<path d="M3635 1010 c-5 -8 -4 -11 2 -7 6 4 13 0 16 -7 3 -8 1 -16 -6 -19 -8
-2 -8 -5 0 -10 17 -10 23 19 9 39 -10 13 -15 14 -21 4z"/>
<path d="M1160 998 c-12 -8 -11 -9 3 -4 12 4 17 2 14 -6 -2 -7 -10 -12 -16
-10 -7 1 -10 -2 -6 -8 5 -8 12 -7 23 2 10 7 18 13 20 14 1 1 -3 6 -11 12 -9 8
-17 8 -27 0z"/>
<path d="M2590 965 c0 -8 2 -15 4 -15 2 0 6 7 10 15 3 8 1 15 -4 15 -6 0 -10
-7 -10 -15z"/>
<path d="M8759 958 c-5 -16 -4 -46 2 -42 4 2 7 13 6 24 -1 17 -5 26 -8 18z"/>
<path d="M2337 943 c-10 -9 -9 -23 1 -23 5 0 9 7 9 15 0 17 -1 18 -10 8z"/>
<path d="M2366 937 c3 -10 9 -15 12 -12 3 3 0 11 -7 18 -10 9 -11 8 -5 -6z"/>
<path d="M3704 929 c-4 -7 -3 -9 4 -5 6 3 15 -2 21 -11 6 -10 11 -13 11 -7 0
20 -27 37 -36 23z"/>
<path d="M2225 911 c-3 -5 -2 -12 3 -15 5 -3 9 1 9 9 0 17 -3 19 -12 6z"/>
<path d="M8726 912 c-2 -4 -1 -14 4 -22 5 -9 4 -20 -3 -29 -10 -12 -9 -13 2
-6 9 5 18 2 27 -10 12 -16 13 -16 11 3 0 11 -4 19 -8 16 -4 -2 -9 3 -12 11 -4
9 -1 12 7 9 8 -3 17 0 22 7 4 7 3 10 -4 6 -14 -9 -43 3 -36 14 3 5 3 9 0 9 -3
0 -7 -4 -10 -8z"/>
<path d="M1275 900 c3 -5 8 -10 11 -10 2 0 4 5 4 10 0 6 -5 10 -11 10 -5 0 -7
-4 -4 -10z"/>
<path d="M2037 873 c3 -7 6 -13 8 -13 2 0 5 6 8 13 3 8 -1 14 -8 14 -7 0 -11
-6 -8 -14z"/>
<path d="M3810 880 c0 -5 5 -10 11 -10 5 0 7 5 4 10 -3 6 -8 10 -11 10 -2 0
-4 -4 -4 -10z"/>
<path d="M1385 870 c4 -6 11 -8 16 -5 14 9 11 15 -7 15 -8 0 -12 -5 -9 -10z"/>
<path d="M3860 841 c0 -6 4 -13 10 -16 6 -3 7 1 4 9 -7 18 -14 21 -14 7z"/>
<path d="M1550 822 c0 -5 7 -9 15 -9 8 0 12 4 9 9 -3 4 -9 8 -15 8 -5 0 -9 -4
-9 -8z"/>
<path d="M1535 790 c-3 -5 -1 -10 4 -10 6 0 11 5 11 10 0 6 -2 10 -4 10 -3 0
-8 -4 -11 -10z"/>
<path d="M3998 763 c7 -3 16 -2 19 1 4 3 -2 6 -13 5 -11 0 -14 -3 -6 -6z"/>
<path d="M4119 683 c-13 -16 -12 -17 4 -4 16 13 21 21 13 21 -2 0 -10 -8 -17
-17z"/>
<path d="M8735 641 c-9 -16 -16 -55 -7 -47 4 4 7 11 7 14 0 4 4 13 9 20 4 7 6
16 3 18 -3 3 -8 1 -12 -5z"/>
<path d="M8755 619 c-4 -6 -5 -12 -2 -15 2 -3 7 2 10 11 7 17 1 20 -8 4z"/>
<path d="M4393 565 c0 -8 4 -12 8 -9 4 2 9 -1 11 -8 3 -8 9 -8 22 -1 13 7 15
13 7 17 -6 4 -11 2 -11 -5 0 -8 -6 -6 -18 4 -15 14 -19 15 -19 2z"/>
<path d="M4535 470 c-3 -6 1 -7 9 -4 18 7 21 14 7 14 -6 0 -13 -4 -16 -10z"/>
<path d="M8665 451 c-6 -11 -5 -12 18 -15 6 -1 11 -9 9 -19 -3 -21 4 -23 11
-3 7 18 -28 52 -38 37z"/>
<path d="M4911 363 c7 -12 15 -20 18 -17 3 2 -3 12 -13 22 -17 16 -18 16 -5
-5z"/>
<path d="M5063 336 c0 -7 6 -13 14 -13 7 0 13 4 13 8 0 4 -6 9 -13 12 -8 3
-14 0 -14 -7z"/>
<path d="M5193 295 c0 -8 3 -13 5 -10 3 3 12 -1 21 -7 10 -8 9 -4 -3 10 -23
26 -23 26 -23 7z"/>
<path d="M5736 261 c-8 -19 2 -36 24 -38 l25 -2 -25 8 c-14 5 -20 10 -15 12
24 6 41 4 47 -5 4 -6 10 -7 15 -2 4 4 -1 13 -12 19 -22 12 -54 17 -59 8z"/>
<path d="M5690 209 c0 -5 5 -7 10 -4 6 3 10 8 10 11 0 2 -4 4 -10 4 -5 0 -10
-5 -10 -11z"/>
<path d="M6420 191 c0 -6 4 -13 10 -16 6 -3 7 1 4 9 -7 18 -14 21 -14 7z"/>
<path d="M6405 170 c10 -11 20 -20 22 -20 2 0 -2 9 -9 20 -7 11 -17 20 -22 20
-5 0 -1 -9 9 -20z"/>
<path d="M8416 177 c3 -10 9 -15 12 -12 3 3 0 11 -7 18 -10 9 -11 8 -5 -6z"/>
<path d="M8290 109 c0 -5 5 -7 10 -4 6 3 10 8 10 11 0 2 -4 4 -10 4 -5 0 -10
-5 -10 -11z"/>
<path d="M6927 59 c7 -7 15 -10 18 -7 3 3 -2 9 -12 12 -14 6 -15 5 -6 -5z"/>
<path d="M8046 45 c19 -29 26 -32 17 -7 -6 15 -5 16 13 2 18 -14 18 -14 5 2
-7 10 -17 15 -22 12 -5 -3 -9 0 -9 5 0 6 -5 11 -10 11 -6 0 -3 -11 6 -25z"/>
<path d="M6870 36 c0 -2 7 -7 16 -10 8 -3 12 -2 9 4 -6 10 -25 14 -25 6z"/>
<path d="M6930 32 c0 -5 7 -9 15 -9 8 0 12 4 9 9 -3 4 -9 8 -15 8 -5 0 -9 -4
-9 -8z"/>
</g>
</svg>
